<svg width="281" height="108" viewBox="0 0 281 108" fill="none" xmlns="http://www.w3.org/2000/svg">
<path d="M52.5895 37.5361H39.0066V92.3026H52.5895V37.5361Z" fill="white"/>
<path d="M74.1539 53.7916C62.3913 53.7916 55.5298 61.9543 55.5298 73.4657C55.5298 84.2097 61.9012 93.2096 75.6242 93.2096C81.5755 93.2096 87.5269 92.0933 91.1676 90.4189L87.5269 80.4423C84.5862 81.8377 80.5253 82.7446 76.7445 82.7446C72.9636 82.7446 69.883 81.4888 68.8327 78.7679L91.5177 75.9075C91.6578 74.582 91.6578 73.3262 91.6578 72.0006C91.6578 61.5357 85.7765 53.7916 74.1539 53.7916ZM67.8525 70.5355C67.9226 65.1635 70.6531 63.2798 73.8038 63.2798C76.8145 63.2798 78.5649 65.5124 78.5649 69.2797L67.8525 70.5355Z" fill="white"/>
<path d="M110.561 53.7916C104.26 53.7916 98.2385 55.2568 94.7377 56.5823L97.9584 65.5124C100.829 64.3961 105.17 63.2798 108.881 63.2798C112.312 63.2798 113.852 64.5356 113.852 66.5589V67.5355C102.509 68.2333 92.7072 70.7449 92.7072 80.4423C92.7072 88.7446 98.7987 93.2096 111.261 93.2096C117.633 93.2096 123.654 91.8839 126.595 90.4189V68.303C126.595 57.9775 121.554 53.7916 110.561 53.7916ZM113.852 83.6516C113.292 83.8609 112.032 83.9307 110.841 83.9307C107.621 83.9307 105.31 82.6748 105.31 80.0934C105.31 76.8145 108.391 76.047 113.852 75.8377V83.6516Z" fill="white"/>
<path d="M147.179 53.7916C140.177 53.7916 135.136 54.9777 130.725 56.5823V92.3026H144.308V64.8844C145.008 64.6054 146.269 64.3961 147.319 64.3961C149.839 64.3961 151.31 65.7914 151.31 68.2333V92.3026H164.893V66.6286C164.893 58.3264 159.712 53.7916 147.179 53.7916Z" fill="white"/>
<path d="M199.269 66.1403V66.0007C203.33 64.6751 206.481 60.2799 206.481 55.3265C206.481 47.0243 200.529 40.8849 186.176 40.8849C179.805 40.8849 173.713 42.0012 169.443 43.6755V90.4189C173.223 91.9538 179.595 93.2096 186.176 93.2096C200.529 93.2096 207.391 87.6282 207.391 78.2098C207.391 72.0006 203.05 67.6751 199.269 66.1403ZM182.675 51.5591C183.516 51.3498 184.846 51.2102 186.106 51.2102C191.567 51.2102 193.178 53.373 193.178 56.8614C193.178 58.6752 192.618 60.0705 191.777 60.9078C191.147 61.5357 189.537 62.1636 187.647 62.1636H182.675V51.5591ZM186.106 82.8841C184.846 82.8841 183.446 82.6748 182.675 82.5352V71.7913H187.647C189.817 71.7913 191.147 72.3495 192.057 73.1867C192.968 74.0238 193.528 75.5586 193.528 77.2331C193.528 81.3493 191.427 82.8841 186.106 82.8841Z" fill="white"/>
<path d="M226.575 53.7916C220.274 53.7916 214.252 55.2568 210.751 56.5823L213.972 65.5124C216.843 64.3961 221.184 63.2798 224.895 63.2798C228.325 63.2798 229.866 64.5356 229.866 66.5589V67.5355C218.523 68.2333 208.721 70.7449 208.721 80.4423C208.721 88.7446 214.812 93.2096 227.275 93.2096C233.647 93.2096 239.668 91.8839 242.608 90.4189V68.303C242.608 57.9775 237.567 53.7916 226.575 53.7916ZM229.866 83.6516C229.306 83.8609 228.045 83.9307 226.855 83.9307C223.634 83.9307 221.324 82.6748 221.324 80.0934C221.324 76.8145 224.404 76.047 229.866 75.8377V83.6516Z" fill="white"/>
<path d="M266.203 53.7916C252.9 53.7916 245.549 60.6287 245.549 72.9076C245.549 84.0004 251.99 90.8375 261.652 90.8375C263.543 90.8375 265.993 90.4887 267.604 89.791V91.1166C267.604 94.7444 265.853 96.6281 261.582 96.6281C257.101 96.6281 253.18 95.7211 250.59 94.3955L246.949 104.93C250.94 106.744 255.911 108 263.123 108C273.695 108 280.976 102.419 280.976 91.1166V56.5823C277.686 55.0474 272.295 53.7916 266.203 53.7916ZM267.604 80.3027C267.043 80.5818 265.783 80.8609 264.873 80.8609C261.162 80.8609 259.131 78.0702 259.131 72.3495C259.131 66.9077 261.162 63.9775 264.873 63.9775C265.993 63.9775 266.973 64.1171 267.604 64.2566V80.3027Z" fill="white"/>
<path d="M26.2473 53.0249C28.2778 53.0249 30.0982 53.8622 31.2883 54.7691L35.5593 43.6764C33.0387 42.0719 28.8379 40.8858 24.3569 40.8858C12.8045 40.8858 0 49.6064 0 67.0477C0 84.489 12.8045 93.2098 24.3569 93.2098C29.0478 93.2098 33.0387 92.0237 35.5593 90.4192L31.2883 79.0474C30.0982 79.9543 28.2778 80.7915 26.2473 80.7915C21.1363 80.7915 14.2172 75.4893 14.2172 66.9082C14.2172 58.3272 21.1363 53.0249 26.2473 53.0249Z" fill="white"/>
<path d="M174.443 40.0129C174.443 40.0129 180.716 38.1662 186.524 38.1662C192.332 38.1662 198.605 40.0129 198.605 40.0129V30.9843H174.443V40.0129Z" fill="white"/>
<path d="M177.188 28.4537H195.035L202.311 10.6702H218.305V0H182.68L163.528 17.2364C163.528 17.2364 162.224 18.3308 162.224 19.6987C162.224 22.5372 165.862 22.3663 165.862 22.3663H177.188V28.4537Z" fill="white"/>
<path d="M204.508 12.6537C204.508 12.6537 204.947 17.3581 209.725 26.8805C213.226 33.8571 221.257 37.4822 221.257 37.4822H227.846C227.846 37.4822 221.669 32.5576 218.58 27.2909C215.491 22.0242 215.079 12.6537 215.079 12.6537H204.508Z" fill="white"/>
<path d="M225.272 5.33502C225.272 2.78525 223.198 0.718205 220.639 0.718205V9.95196C223.198 9.95196 225.272 7.88486 225.272 5.33502Z" fill="white"/>
</svg>
