<svg width="98" height="97" viewBox="0 0 98 97" fill="none" xmlns="http://www.w3.org/2000/svg">
<path d="M90.9734 97H7.02657C6.28651 97 5.68609 96.3954 5.68609 95.6494V64.3721C5.68609 63.6262 6.28651 63.0214 7.02657 63.0214C7.76663 63.0214 8.36705 63.6262 8.36705 64.3721V94.2987H89.6329V64.3721C89.6329 63.6262 90.2334 63.0214 90.9734 63.0214C91.7135 63.0214 92.3139 63.6262 92.3139 64.3721V95.6494C92.3139 96.3954 91.7135 97 90.9734 97Z" fill="white"/>
<path d="M1.33999 50.8688C1.14538 50.8688 0.948144 50.8261 0.761384 50.7357C0.0937606 50.4133 -0.188125 49.6066 0.13216 48.934L12.1354 23.7068C12.358 23.2382 12.8283 22.94 13.3441 22.94H65.4676C66.2077 22.94 66.8081 23.5448 66.8081 24.2907C66.8081 25.0366 66.2077 25.6413 65.4676 25.6413H14.188L2.54957 50.1017C2.31917 50.586 1.83918 50.8688 1.33999 50.8688Z" fill="white"/>
<path d="M96.66 50.8688C96.1608 50.8688 95.6808 50.586 95.4504 50.1017L83.812 25.6413H78.8567C78.1167 25.6413 77.5162 25.0366 77.5162 24.2907C77.5162 23.5448 78.1167 22.94 78.8567 22.94H84.6559C85.1717 22.94 85.642 23.2382 85.8646 23.7068L97.8678 48.934C98.1881 49.6066 97.9062 50.4133 97.2386 50.7357C97.0519 50.8261 96.8546 50.8688 96.66 50.8688Z" fill="white"/>
<path d="M96.6591 65.7227H69.6304C68.8904 65.7227 68.2899 65.118 68.2899 64.3721C68.2899 63.6262 68.8904 63.0214 69.6304 63.0214H95.3187V50.8685H70.9378C70.1977 50.8685 69.5973 50.2637 69.5973 49.5179C69.5973 48.772 70.1977 48.1672 70.9378 48.1672H96.6591C97.3992 48.1672 97.9996 48.772 97.9996 49.5179V64.3721C97.9996 65.118 97.3992 65.7227 96.6591 65.7227Z" fill="white"/>
<path d="M28.3696 65.7227H1.34086C0.600805 65.7227 0.00038061 65.118 0.00038061 64.3721V49.5179C0.00038061 48.772 0.600805 48.1672 1.34086 48.1672H26.5456C27.2857 48.1672 27.8861 48.772 27.8861 49.5179C27.8861 50.2637 27.2857 50.8685 26.5456 50.8685H2.68135V63.0214H28.3696C29.1096 63.0214 29.7101 63.6262 29.7101 64.3721C29.7101 65.118 29.1096 65.7227 28.3696 65.7227Z" fill="white"/>
<path d="M67.3623 88.5547C67.2191 88.5547 67.076 88.5318 66.9364 88.4848L49.216 82.5077C49.0772 82.4608 48.9254 82.4601 48.7831 82.5079L31.0636 88.4848C30.6517 88.6232 30.2005 88.5535 29.8497 88.2968C29.4997 88.0402 29.2938 87.6287 29.2973 87.1921L29.4631 68.3642C29.4648 68.2155 29.4168 68.0687 29.3296 67.9491L18.2121 52.8162C17.9546 52.4652 17.8813 52.0104 18.0149 51.5953C18.1493 51.18 18.4739 50.8556 18.8867 50.7244L36.7092 45.0653C36.8497 45.0208 36.9745 44.9299 37.0591 44.8095L47.9087 29.4789C48.1609 29.1234 48.5676 28.9124 49.0004 28.9124C49.4342 28.9124 49.84 29.1234 50.0922 29.4789L60.9409 44.8093C61.0255 44.93 61.1503 45.021 61.2908 45.0656L79.1133 50.7245C79.5261 50.8558 79.8507 51.1801 79.9851 51.5954C80.1187 52.0105 80.0454 52.4654 79.7879 52.8163L68.6704 67.9498C68.5823 68.0692 68.5352 68.2158 68.5369 68.3628L68.7027 87.1921C68.7062 87.6287 68.5003 88.0402 68.1503 88.2968C67.9182 88.4666 67.6415 88.5547 67.3623 88.5547ZM48.9996 79.7709C49.3635 79.7709 49.7222 79.8298 50.0678 79.9463L66.0052 85.322L65.856 68.3882C65.849 67.6589 66.0829 66.9322 66.5149 66.3434C66.5149 66.3438 66.5149 66.3432 66.5149 66.3434L76.5144 52.7316L60.4844 47.6419C59.7915 47.4218 59.1789 46.9727 58.7573 46.3772L49.0004 32.5894L39.2427 46.3775C38.8211 46.973 38.2076 47.4221 37.5147 47.6418L21.4856 52.7315L31.4851 66.3427C31.9171 66.9322 32.151 67.6589 32.144 68.3896L31.9948 85.322L47.9322 79.9463C48.2778 79.8298 48.6365 79.7709 48.9996 79.7709Z" fill="white"/>
<path d="M78.8977 30.2973C78.7546 30.2973 78.6115 30.2744 78.4719 30.2274L72.1622 28.0989L65.8525 30.2274C65.4406 30.3659 64.9902 30.2965 64.6385 30.0395C64.2886 29.7828 64.0826 29.3714 64.0861 28.9348L64.1446 22.2291L60.1851 16.8409C59.9276 16.49 59.8543 16.0351 59.9879 15.6199C60.1223 15.2046 60.4469 14.8802 60.8597 14.749L67.2078 12.7336L71.0704 7.27452C71.5748 6.56359 72.7495 6.56359 73.2539 7.27452L77.1165 12.7336L83.4646 14.749C83.8774 14.8802 84.2021 15.2046 84.3365 15.6199C84.47 16.0351 84.3967 16.49 84.1392 16.8409L80.1798 22.2291L80.2382 28.9348C80.2417 29.3714 80.0358 29.7828 79.6858 30.0395C79.4537 30.2092 79.177 30.2973 78.8977 30.2973ZM72.1622 25.3648C72.3865 25.3648 72.609 25.4012 72.8219 25.4729L77.5407 27.0646L77.497 22.0518C77.4927 21.6033 77.6358 21.1539 77.902 20.7891C77.9029 20.7878 77.9037 20.7865 77.9055 20.785L80.8657 16.7561L76.1199 15.2495C75.694 15.1139 75.3153 14.8374 75.0535 14.4707L72.1622 10.3851L69.2744 14.4664C69.0143 14.8344 68.6338 15.1128 68.2044 15.2493L63.4586 16.7561L66.4189 20.785C66.6868 21.149 66.8325 21.6 66.8273 22.0546L66.7837 27.0646L71.5006 25.4734C71.7153 25.4012 71.9379 25.3648 72.1622 25.3648Z" fill="white"/>
<path d="M19.2079 19.95C19.0647 19.95 18.9216 19.927 18.782 19.8801L13.6347 18.1439L8.48749 19.8801C8.07644 20.0187 7.62438 19.9489 7.27355 19.692C6.92272 19.4354 6.71763 19.0238 6.72112 18.5873L6.76999 13.1182L3.54009 8.722C3.28264 8.37115 3.20934 7.91632 3.34286 7.50117C3.47726 7.08591 3.80191 6.76154 4.2147 6.63031L9.39161 4.98652L12.543 0.533283C13.0465 -0.177102 14.2212 -0.17842 14.7265 0.533283L17.8778 4.98652L23.0556 6.63041C23.4684 6.76165 23.7931 7.08602 23.9275 7.50128C24.061 7.91654 23.9877 8.37137 23.7302 8.72233L20.4995 13.1183L20.5483 18.5873C20.5518 19.0238 20.3467 19.4354 19.9959 19.692C19.7638 19.8618 19.4871 19.95 19.2079 19.95ZM13.4035 18.0659C13.4043 18.0663 13.4052 18.0665 13.4061 18.0667L13.4035 18.0659ZM13.8677 18.0652L13.866 18.066C13.866 18.0657 13.8669 18.0655 13.8677 18.0652ZM13.6347 15.4026C13.8468 15.4026 14.0563 15.4371 14.257 15.5052L17.8508 16.7173L17.8168 12.897C17.8141 12.4694 17.9503 12.0483 18.1999 11.708L20.4567 8.63748L16.8393 7.48919C16.4379 7.36102 16.0818 7.10085 15.8375 6.75627L13.6347 3.64379L11.4338 6.7544C11.1868 7.10195 10.8298 7.36245 10.4284 7.48952L6.81363 8.63748L9.06958 11.7082C9.31918 12.0476 9.45532 12.469 9.4527 12.8937L9.41867 16.7173L13.0142 15.5045C13.2132 15.4371 13.4227 15.4026 13.6347 15.4026Z" fill="white"/>
</svg>
