<svg width="205" height="39" viewBox="0 0 205 39" fill="none" xmlns="http://www.w3.org/2000/svg">
<g style="mix-blend-mode:luminosity" opacity="0.6">
<mask id="mask0" mask-type="alpha" maskUnits="userSpaceOnUse" x="100" y="13" width="26" height="26">
<path d="M101.504 37.5697C98.8026 31.2082 100.038 23.58 105.214 18.4035C110.391 13.2271 118.019 11.992 124.38 14.6941C127.082 21.0555 125.847 28.6836 120.671 33.8601C115.494 39.0366 107.866 40.2715 101.504 37.5697ZM106.151 32.9233C107.005 33.777 108.388 33.777 109.242 32.9233C110.096 32.0696 110.096 30.6859 109.242 29.8323C108.388 28.9786 107.005 28.9786 106.151 29.8323C105.297 30.6858 105.297 32.0696 106.151 32.9233Z" fill="white"/>
</mask>
<g mask="url(#mask0)">
<path d="M100.122 38.9601H125.779V13.3034H100.122V38.9601Z" fill="white"/>
</g>
<mask id="mask1" mask-type="alpha" maskUnits="userSpaceOnUse" x="90" y="0" width="16" height="16">
<path d="M95.4904 0C98.131 0.00533227 100.77 1.01557 102.785 3.0305C105.855 6.1006 106.593 10.6198 104.997 14.3856C101.231 15.9812 96.7123 15.2435 93.6421 12.1735C90.572 9.1034 89.8343 4.58416 91.4299 0.81841C92.7112 0.275551 94.0795 0.00275926 95.4484 1.69508e-05H95.4904V0ZM101.802 11.1903C102.454 10.5386 102.454 9.48231 101.802 8.83099C101.15 8.17929 100.094 8.17929 99.4425 8.83099C98.7908 9.48231 98.7908 10.5386 99.4425 11.1903C100.094 11.842 101.15 11.842 101.802 11.1903Z" fill="white"/>
</mask>
<g mask="url(#mask1)">
<path d="M90.572 15.2041H105.823V0H90.572V15.2041Z" fill="white"/>
</g>
<mask id="mask2" mask-type="alpha" maskUnits="userSpaceOnUse" x="0" y="13" width="94" height="26">
<path d="M0.916029 13.3034H5.42733V25.5478L14.3779 13.3034H19.8972L12.5396 23.4034L19.8972 38.9601H14.5537L9.38827 27.7281L5.42731 33.1655V38.9601H0.916016V13.3034H0.916029ZM88.3667 37.1776C86.9932 38.2178 85.1033 38.9594 82.9748 38.9594C80.0883 38.9594 77.6407 37.5954 76.3254 35.9732C74.9004 34.1665 74.0967 32.1385 74.0967 28.8943C74.0967 25.6499 74.9004 23.622 76.3254 21.8153C77.6407 20.1931 80.0883 18.829 82.9748 18.829C84.9496 18.829 86.7191 19.4677 88.0613 20.3906V18.8292H91.8977V33.7528C91.8977 34.6377 92.1898 34.9695 92.9572 34.9695C93.2493 34.9695 93.5415 34.8959 93.5415 34.8959V38.2874C92.7742 38.6197 92.3723 38.8037 91.2764 38.8037C89.8162 38.8037 88.8366 38.1173 88.3667 37.1776ZM87.2129 28.8943C87.2129 27.0876 86.9571 25.2809 85.8612 24.0646C85.2399 23.4005 84.2168 22.8479 82.9748 22.8479C81.7323 22.8479 80.7095 23.4005 80.0883 24.0646C78.9924 25.2809 78.7366 27.0876 78.7366 28.8943C78.7366 30.7008 78.9924 32.5075 80.0883 33.7243C80.7095 34.3879 81.7323 34.9406 82.9748 34.9406C84.2168 34.9406 85.2399 34.3879 85.8612 33.7243C86.9571 32.5075 87.2129 30.7008 87.2129 28.8943ZM72.5988 38.4438C71.32 38.7756 70.0411 38.9601 68.6893 38.9601C64.8531 38.9601 62.9534 36.748 62.9534 33.0611V23.3278H59.4826V19.5303H62.9534V13.3034H67.5202V19.5303H72.3062V23.3278H67.5202V32.6557C67.5202 34.1304 68.1779 34.7573 69.6393 34.7573C70.5891 34.7573 71.3564 34.72 72.5989 34.5727V38.4438H72.5988ZM57.9156 32.5443C57.9156 34.3879 57.2579 35.7518 56.2715 36.7473C54.7369 38.2957 52.362 38.9594 49.7684 38.9594C47.357 38.9594 45.2012 38.2589 43.6302 36.7473C42.5341 35.6781 41.6207 34.0928 41.6207 32.2863H45.8953C45.8953 33.1344 46.3339 34.0561 46.9184 34.5352C47.6493 35.1251 48.4895 35.3832 49.8048 35.3832C51.3394 35.3832 53.6773 35.0515 53.6773 32.9499C53.6773 31.8436 52.9469 31.1063 51.7777 30.9223C50.0969 30.6641 48.1973 30.5532 46.5165 30.1845C43.9227 29.6315 42.1686 27.4934 42.1686 25.06C42.1686 23.1057 42.9725 21.7416 44.1052 20.7463C45.4934 19.5295 47.5031 18.829 49.8779 18.829C52.1432 18.829 54.4447 19.5664 55.8329 21.078C56.856 22.1839 57.5137 23.622 57.5137 25.0231H53.1658C53.1658 24.2855 52.8372 23.6956 52.3989 23.2165C51.8505 22.6633 50.8643 22.3316 49.9145 22.3316C49.2568 22.3316 48.6356 22.3316 47.9415 22.6266C47.1376 22.9584 46.48 23.6587 46.48 24.6541C46.48 26.0186 47.6492 26.424 48.672 26.5716C50.3891 26.7925 50.8643 26.8294 52.7275 27.1243C55.7236 27.6039 57.9156 29.521 57.9156 32.5443ZM34.4587 37.1776C33.1165 38.2178 31.269 38.9594 29.1887 38.9594C26.3677 38.9594 23.9754 37.5954 22.6898 35.9732C21.2973 34.1665 20.5118 32.1385 20.5118 28.8943C20.5118 25.6499 21.2973 23.622 22.6898 21.8153C23.9754 20.1931 26.3677 18.829 29.1887 18.829C31.1188 18.829 32.8487 19.4677 34.1601 20.3906V18.8292H37.9096V33.7528C37.9096 34.6377 38.1955 34.9695 38.9454 34.9695C39.2308 34.9695 39.5167 34.8959 39.5167 34.8959V38.2874C38.7668 38.6197 38.3736 38.8037 37.3025 38.8037C35.8757 38.8037 34.9179 38.1173 34.4587 37.1776ZM33.6275 28.8943C33.6275 27.0876 33.3717 25.2809 32.2758 24.0646C31.6549 23.4005 30.6318 22.8479 29.3895 22.8479C28.1473 22.8479 27.1244 23.4005 26.5034 24.0646C25.407 25.2809 25.1518 27.0876 25.1518 28.8943C25.1518 30.7008 25.407 32.5075 26.5034 33.7243C27.1244 34.3879 28.1473 34.9406 29.3895 34.9406C30.6318 34.9406 31.6549 34.3879 32.2758 33.7243C33.3717 32.5075 33.6275 30.7008 33.6275 28.8943Z" fill="white"/>
</mask>
<g mask="url(#mask2)">
<path d="M0.916016 38.9601H93.5652V13.3034H0.916016V38.9601Z" fill="white"/>
</g>
<mask id="mask3" mask-type="alpha" maskUnits="userSpaceOnUse" x="134" y="12" width="38" height="28">
<path d="M153.529 21.2289C153.529 26.2379 150.429 29.6267 144.623 29.6267H139.279V38.9815H134.719V12.8683H144.623C150.429 12.8683 153.529 16.2198 153.529 21.2289ZM148.897 20.8056C148.897 18.3009 147.508 16.5699 144.444 16.5699H139.279V25.0042H144.444C147.508 25.0042 148.897 23.3099 148.897 20.8056ZM171.146 28.9453C171.146 32.1865 170.362 34.2121 168.972 36.0168C167.689 37.6373 165.303 39.0001 162.488 39.0001C159.674 39.0001 157.287 37.6373 156.004 36.0168C154.615 34.2121 153.832 32.1865 153.832 28.9453C153.832 25.7041 154.615 23.6781 156.004 21.8734C157.287 20.2529 159.674 18.89 162.488 18.89C165.303 18.89 167.689 20.2529 168.972 21.8734C170.362 23.6781 171.146 25.7041 171.146 28.9453ZM166.621 28.9453C166.621 27.1406 166.371 25.3355 165.303 24.1204C164.697 23.4572 163.699 22.9048 162.488 22.9048C161.277 22.9048 160.279 23.4572 159.674 24.1204C158.605 25.3355 158.356 27.1406 158.356 28.9453C158.356 30.75 158.605 32.5547 159.674 33.7701C160.279 34.433 161.277 34.9853 162.488 34.9853C163.699 34.9853 164.697 34.433 165.303 33.7701C166.371 32.5547 166.621 30.75 166.621 28.9453Z" fill="white"/>
</mask>
<g mask="url(#mask3)">
<path d="M134.711 39.0079H171.152V12.8286H134.711V39.0079Z" fill="white"/>
</g>
<mask id="mask4" mask-type="alpha" maskUnits="userSpaceOnUse" x="190" y="13" width="15" height="26">
<path d="M204.05 38.4438C202.772 38.7756 201.492 38.9601 200.141 38.9601C196.304 38.9601 194.404 36.748 194.404 33.0611V23.3278H190.934V19.5303H194.404V13.3034H198.971V19.5303H203.757V23.3278H198.971V32.6557C198.971 34.1304 199.628 34.7573 201.091 34.7573C202.04 34.7573 202.807 34.72 204.05 34.5727V38.4438Z" fill="white"/>
</mask>
<g mask="url(#mask4)">
<path d="M190.919 38.9601H204.079V13.3034H190.919V38.9601Z" fill="white"/>
</g>
<mask id="mask5" mask-type="alpha" maskUnits="userSpaceOnUse" x="173" y="18" width="17" height="21">
<path d="M189.367 32.5442C189.367 34.3877 188.708 35.7517 187.723 36.7471C186.188 38.2956 183.813 38.9592 181.22 38.9592C178.809 38.9592 176.652 38.2587 175.081 36.7471C173.985 35.6781 173.072 34.0926 173.072 32.2861H177.346C177.346 33.1342 177.785 34.0559 178.369 34.535C179.1 35.1249 179.94 35.383 181.255 35.383C182.79 35.383 185.128 35.0513 185.128 32.9497C185.128 31.8434 184.399 31.1062 183.229 30.922C181.548 30.6639 179.649 30.553 177.968 30.1843C175.374 29.6313 173.621 27.4931 173.621 25.0598C173.621 23.1055 174.423 21.7414 175.557 20.7461C176.945 19.5293 178.955 18.829 181.33 18.829C183.595 18.829 185.897 19.5662 187.285 21.0778C188.307 22.1837 188.964 23.6218 188.964 25.023H184.617C184.617 24.2853 184.289 23.6954 183.85 23.2163C183.302 22.6631 182.315 22.3313 181.365 22.3313C180.708 22.3313 180.087 22.3313 179.393 22.6264C178.589 22.9582 177.93 23.6585 177.93 24.654C177.93 26.0184 179.1 26.4238 180.123 26.5714C181.841 26.7923 182.315 26.8292 184.179 27.1241C187.175 27.6037 189.367 29.5208 189.367 32.5442Z" fill="white"/>
</mask>
<g mask="url(#mask5)">
<path d="M173.054 38.9602H189.397V18.8149H173.054V38.9602Z" fill="white"/>
</g>
</g>
</svg>
