<svg width="109" height="95" viewBox="0 0 109 95" fill="none" xmlns="http://www.w3.org/2000/svg">
<path d="M38.5705 88.8817C17.3027 88.8817 0 71.6323 0 50.43C0.0246003 29.2507 17.3265 12.0019 38.5687 11.9781C58.5652 11.9781 75.0719 26.9228 76.9653 46.7407C77.0364 47.4804 76.4917 48.1371 75.7502 48.2076C75.0043 48.2756 74.3497 47.7357 74.2786 46.9958C72.5179 28.5664 57.1665 14.6688 38.5705 14.6688C18.8148 14.691 2.72184 30.7341 2.69899 50.4315C2.69899 70.1487 18.791 86.191 38.5705 86.191C41.7448 86.191 44.8936 85.7775 47.9291 84.9618C48.6469 84.7679 49.3884 85.1936 49.5835 85.9108C49.7776 86.6283 49.3515 87.3665 48.632 87.5599C45.3672 88.437 41.982 88.8817 38.5705 88.8817Z" fill="white"/>
<path d="M38.5705 80.8151C21.7642 80.8151 8.09171 67.1843 8.09171 50.43C8.11104 33.6943 21.7826 20.0643 38.5687 20.0447C53.8991 20.0447 66.8994 31.4621 68.8094 46.6027C68.9025 47.3398 68.378 48.0126 67.6391 48.1053C66.9073 48.1975 66.2246 47.6757 66.1315 46.9383C64.391 33.1404 52.5416 22.7354 38.5705 22.7354C23.2709 22.7532 10.8083 35.1776 10.7907 50.4315C10.7907 65.7007 23.2525 78.1244 38.5705 78.1244C41.5445 78.1244 44.4701 77.6588 47.2667 76.7405C47.9748 76.5077 48.7383 76.8919 48.9711 77.5974C49.2039 78.3032 48.8191 79.0637 48.1119 79.2961C45.0421 80.304 41.8318 80.8151 38.5705 80.8151Z" fill="white"/>
<path d="M38.5705 55.0019C36.0419 55.0019 33.9843 52.9509 33.9843 50.43C33.9843 47.9089 36.0419 45.8579 38.5705 45.8579C41.099 45.8579 43.1567 47.9089 43.1567 50.43C43.1567 52.9509 41.099 55.0019 38.5705 55.0019ZM38.5705 48.5487C37.5303 48.5487 36.6833 49.3926 36.6833 50.43C36.6833 51.4672 37.5303 52.3111 38.5705 52.3111C39.6107 52.3111 40.4577 51.4672 40.4577 50.43C40.4577 49.3926 39.6107 48.5487 38.5705 48.5487Z" fill="white"/>
<path d="M16.6543 57.6352C16.0578 57.6352 15.5131 57.2384 15.3514 56.6369C13.2296 48.7213 15.2732 40.3845 20.8179 34.3361C21.3205 33.7876 22.1753 33.7495 22.7244 34.2507C23.2744 34.7519 23.3131 35.6028 22.8105 36.1514C17.8896 41.5191 16.0762 48.9175 17.959 55.9421C18.1514 56.66 17.7236 57.3974 17.004 57.5892C16.8872 57.6203 16.7694 57.6352 16.6543 57.6352Z" fill="white"/>
<path d="M103.882 95H48.2551C47.51 95 46.9056 94.3976 46.9056 93.6546V73.1477C46.9056 72.4047 47.51 71.8024 48.2551 71.8024H103.882C104.627 71.8024 105.232 72.4047 105.232 73.1477V93.6546C105.232 94.3976 104.627 95 103.882 95ZM49.6046 92.3093H102.533V74.4931H49.6046V92.3093Z" fill="white"/>
<path d="M107.651 64.7539H44.4868C44.0229 64.7539 43.5916 64.5165 43.3447 64.1253C43.0978 63.734 43.0697 63.2437 43.27 62.8269L51.2247 46.2867C51.4487 45.8198 51.9222 45.5229 52.4415 45.5229H99.6959C100.215 45.5229 100.689 45.8198 100.913 46.2867L108.867 62.8269C109.068 63.2437 109.04 63.734 108.793 64.1253C108.546 64.5165 108.114 64.7539 107.651 64.7539ZM46.6306 62.0631H105.507L98.8463 48.2136H53.2911L46.6306 62.0631Z" fill="white"/>
<path d="M107.651 74.4931H44.4868C43.7418 74.4931 43.1373 73.8907 43.1373 73.1477V63.4085C43.1373 62.6655 43.7418 62.0631 44.4868 62.0631H107.651C108.396 62.0631 109 62.6655 109 63.4085V73.1477C109 73.8907 108.396 74.4931 107.651 74.4931ZM45.8363 71.8024H106.301V64.7539H45.8363V71.8024Z" fill="white"/>
<path d="M42.9318 14.6688H34.2083C33.4633 14.6688 32.8588 14.0664 32.8588 13.3234V6.18529C32.8588 5.44221 33.4633 4.83993 34.2083 4.83993H42.9318C43.6768 4.83993 44.2812 5.44221 44.2812 6.18529V13.3234C44.2812 14.0664 43.6768 14.6688 42.9318 14.6688ZM35.5578 11.9781H41.5823V7.53066H35.5578V11.9781Z" fill="white"/>
<path d="M48.2797 7.53066H28.8604C28.1154 7.53066 27.5109 6.92826 27.5109 6.18529V1.34536C27.5109 0.602391 28.1154 0 28.8604 0H48.2797C49.0247 0 49.6292 0.602391 49.6292 1.34536V6.18529C49.6292 6.92826 49.0247 7.53066 48.2797 7.53066ZM30.2099 4.83993H46.9302V2.69072H30.2099V4.83993Z" fill="white"/>
<path d="M65.245 25.2577C64.8997 25.2577 64.5545 25.1263 64.2909 24.8637C63.7637 24.3383 63.7637 23.4864 64.2909 22.961L66.9741 20.2863C67.5012 19.761 68.3552 19.761 68.8823 20.2863C69.4095 20.8117 69.4095 21.6636 68.8823 22.1889L66.1992 24.8637C65.9356 25.1263 65.5903 25.2577 65.245 25.2577Z" fill="white"/>
<path d="M71.5207 26.0129C71.1631 26.0129 70.8196 25.8711 70.5666 25.6188L63.5335 18.6073C63.0064 18.0819 63.0064 17.2302 63.5335 16.7048L66.0384 14.2073C66.5444 13.7026 67.4406 13.7027 67.9466 14.2072L74.9797 21.2187C75.5068 21.7441 75.5068 22.5959 74.9797 23.1212L72.4748 25.6187C72.2218 25.8711 71.8783 26.0129 71.5207 26.0129ZM66.396 17.6559L71.5207 22.7648L72.1173 22.1701L66.9925 17.0612L66.396 17.6559Z" fill="white"/>
<path d="M38.5705 48.5269C37.8255 48.5269 37.221 47.9245 37.221 47.1815V26.6053C37.221 25.8623 37.8255 25.2599 38.5705 25.2599C39.3155 25.2599 39.92 25.8623 39.92 26.6053V47.1815C39.92 47.9245 39.3155 48.5269 38.5705 48.5269Z" fill="white"/>
</svg>
