<svg width="129" height="41" viewBox="0 0 129 41" fill="none" xmlns="http://www.w3.org/2000/svg">
<g opacity="0.6">
<path d="M97.5173 16.179C94.5038 15.1318 93.5634 14.5119 93.5634 13.3792C93.5634 12.1182 94.6106 11.3702 96.47 11.3702C97.9875 11.3702 99.5049 11.7976 100.638 12.2465L101.129 6.77509C99.74 6.39039 98.0516 6.09117 96.2136 6.09117C90.1438 6.09117 86.2326 9.55352 86.2326 14.1059C86.1898 17.0125 88.1347 19.7696 93.2 21.4794C96.0639 22.4412 96.812 23.0396 96.812 24.2792C96.812 25.5402 95.8502 26.331 93.542 26.331C91.2979 26.331 88.3912 25.3264 86.9806 24.4715L85.6342 29.9429C87.4936 30.9474 90.3361 31.6527 93.5634 31.6527C100.595 31.6527 104.186 28.2972 104.186 23.7235C104.143 20.1329 102.198 17.7819 97.5173 16.179ZM115.962 25.4547C113.654 25.4547 112.948 24.1082 112.948 21.1374V0L105.489 1.7098V6.64686H102.647L102.134 12.2678H105.511V22.2702C105.511 25.7325 106.216 28.0835 107.626 29.5368C108.823 30.7978 110.875 31.6527 113.333 31.6527C115.492 31.6527 117.287 31.3962 118.291 30.9902L118.249 25.2196C117.672 25.3264 116.924 25.4333 115.962 25.4547ZM113.547 12.2678H118.227V6.64686H113.547V12.2678ZM28.8901 19.3421C28.7405 15.5806 28.6123 11.0496 28.6123 6.49725H28.4627C27.4582 10.4939 26.0903 14.9394 24.8293 18.5941L20.854 30.7978H15.1262L11.6425 18.6796C10.5739 15.0035 9.46248 10.558 8.69307 6.47588H8.60758C8.41523 10.6863 8.26562 15.5165 8.03052 19.4276L7.45347 31.2894H0.614258L2.68739 0.0213726H12.4974L15.6819 10.4512C16.6864 14.0631 17.7123 17.9743 18.4389 21.629H18.5886C19.5076 18.017 20.6189 13.8708 21.6876 10.4084L25.1713 0.0213726H34.7889L36.5842 31.2894H29.3817L28.8901 19.3421ZM69.2628 21.3298C69.5193 24.4929 72.6183 25.989 76.1875 25.989C78.795 25.989 80.8895 25.647 82.9626 24.9845L83.9671 30.1566C81.4665 31.1611 78.4102 31.6527 75.0975 31.6527C66.7836 31.6527 62.0175 26.8439 62.0175 19.1712C62.0175 12.9518 65.8859 6.09117 74.3922 6.09117C82.3214 6.09117 85.3136 12.2465 85.3136 18.3163C85.3136 19.62 85.164 20.7741 85.0571 21.3298H69.2628ZM78.2393 16.1149C78.2393 14.2555 77.4271 11.1565 73.922 11.1565C70.7161 11.1565 69.4124 14.0631 69.2201 16.1149H78.2393Z" fill="white"/>
<path d="M123.442 0.0405909L128.614 9.4445L123.442 18.8912H118.206L123.378 9.4445L118.206 0.0405909H123.442C123.442 0.0192184 123.442 0.0192184 123.442 0.0405909ZM59.5596 40.5415H38.5718V35.3266H59.5596V40.5415ZM44.7271 21.3063C44.9836 24.4694 48.0826 25.9655 51.6518 25.9655C54.2592 25.9655 56.3537 25.6235 58.4269 24.961L59.4314 30.1331C56.9308 31.1376 53.8745 31.6292 50.5618 31.6292C42.2479 31.6292 37.4818 26.8204 37.4818 19.1476C37.4818 12.9282 41.3502 6.06764 49.8565 6.06764C57.7857 6.06764 60.7779 12.2229 60.7779 18.2927C60.7779 19.5965 60.6283 20.7506 60.5214 21.3063H44.7271ZM53.7036 16.0914C53.7036 14.232 52.8914 11.1329 49.3863 11.1329C46.1804 11.1329 44.8767 14.0396 44.663 16.0914H53.7036Z" fill="white"/>
</g>
</svg>
