<svg width="204" height="185" viewBox="0 0 204 185" fill="none" xmlns="http://www.w3.org/2000/svg">
<path d="M146.998 80.4154C145.984 77.9674 143.689 76.4474 141.009 76.4474C138.671 76.4474 137.016 77.3834 135.909 78.5404C134.784 77.5484 133.219 76.7754 131.159 76.7754C128.62 76.7754 126.219 78.4534 125.184 80.9494C124.481 82.6473 124.548 84.4373 125.305 85.9362H109.568L139.56 55.944L118.987 35.372L96.9792 57.3796C98.2985 53.6444 99.1881 49.5598 98.5236 46.2389C97.5536 41.3889 94.2126 37.6739 90.2106 36.9939C86.4807 36.3609 82.9146 38.3969 80.4417 42.5819C76.666 48.971 81.9877 57.9825 86.2751 63.6104C84.5238 62.8963 82.0781 61.8189 78.6729 60.1773C70.7769 56.3703 56.9609 55.6363 49.7668 60.6703C46.6138 62.8773 45.1379 65.9533 45.4988 69.5673C45.8329 72.9103 48.1469 76.2773 51.6879 78.5723C53.7419 79.9033 57.3939 81.6043 62.6478 81.6043C65.3409 81.6043 68.4578 81.1573 71.9938 79.9823C73.3336 79.537 74.6075 79.0449 75.8298 78.5292L56.4409 97.918L77.0139 118.49L78.8378 116.666V141.284H157.869V85.9362H146.57C147.615 84.4214 147.799 82.3481 146.998 80.4154ZM128.88 82.4804C129.22 81.6594 130.078 80.7754 131.159 80.7754C133.323 80.7754 134.12 82.6434 134.208 82.8714C134.51 83.6854 135.292 84.1884 136.18 84.1594C137.057 84.1184 137.808 83.4944 138.027 82.6434C138.122 82.2774 138.708 80.4474 141.009 80.4474C142.519 80.4474 143.116 81.4954 143.303 81.9454C143.595 82.6514 143.544 83.4254 143.181 83.7874L136.148 90.8214C134.269 89.2144 130.962 86.3464 129.194 84.5794C128.466 83.8494 128.684 82.9514 128.88 82.4804ZM83.8846 44.6169C85.3226 42.1849 87.0817 40.8829 88.8967 40.8829C89.1116 40.8829 89.3267 40.9019 89.5427 40.9379C91.8837 41.3349 93.9636 43.8379 94.6016 47.0249C95.4417 51.2259 92.7246 57.9269 90.4486 62.4139C86.3716 57.2719 81.2426 49.0879 83.8846 44.6169ZM70.7319 76.1853C61.8929 79.1253 56.3679 76.8413 53.8638 75.2163C50.8799 73.2823 49.6379 70.7503 49.4799 69.1693C49.2648 67.0213 50.1088 65.3133 52.0609 63.9473C57.3499 60.2473 69.4388 60.1673 76.9359 63.7803C80.7119 65.6003 83.8198 66.9743 86.1299 67.8523C83.1368 70.2063 77.7568 73.8513 70.7319 76.1853ZM62.0969 97.918L88.1115 71.9034L87.7426 92.3789L91.7426 92.4509L92.1606 69.2839H107.363V65.2839H94.731L118.987 41.028L133.904 55.944L77.0139 112.834L62.0969 97.918ZM82.8368 112.667L105.568 89.9362H116.353V137.284H82.8368V112.667ZM153.868 137.284H120.353V89.9362H129.063C131.744 92.3541 134.797 94.9229 134.971 95.0704C135.345 95.3834 135.803 95.5394 136.259 95.5394C136.772 95.5394 137.284 95.3414 137.673 94.9534L142.691 89.9362H153.868V137.284Z" fill="#AA49FC"/>
<path d="M111.391 0C67.8699 0 31.305 30.2491 21.5518 70.8204C9.64014 70.8746 0 80.5454 0 92.4698C0 104.398 9.64673 114.071 21.5639 114.119C31.3547 154.638 67.907 184.831 111.391 184.831C162.349 184.831 203.807 143.373 203.807 92.415C203.807 41.457 162.349 0 111.391 0ZM13.1791 97.4615L21.9311 79.6805H25.7661L17.0491 97.4615H23.2211V91.6735H26.6721V97.4615H29.3221V100.774H26.6721V104.505H23.2211V100.774H13.1791V97.4615ZM111.391 180.831C69.9961 180.831 35.1661 152.231 25.5928 113.756C35.6682 111.903 43.304 103.081 43.304 92.4698C43.304 81.8539 35.6618 73.0287 25.5803 71.1799C35.1176 32.6546 69.9598 4 111.391 4C160.144 4 199.807 43.663 199.807 92.415C199.807 141.168 160.144 180.831 111.391 180.831Z" fill="#AA49FC"/>
<path d="M164.774 53.9165C161.507 53.9165 159.309 55.3755 157.942 57.0435C156.607 55.6605 154.544 54.3575 151.51 54.3575C148.368 54.3575 145.393 56.4445 144.107 59.5495C142.915 62.4265 143.454 65.3955 145.549 67.4905C149.122 71.0635 156.769 77.4955 157.092 77.7675C157.466 78.0815 157.923 78.2365 158.379 78.2365C158.893 78.2365 159.405 78.0395 159.793 77.6505L171.019 66.4245C172.876 64.5675 173.339 61.5865 172.197 58.8295C170.943 55.7985 168.098 53.9165 164.774 53.9165ZM168.191 63.5965L158.268 73.5195C155.858 71.4645 150.935 67.2195 148.377 64.6625C147.064 63.3485 147.537 61.7195 147.802 61.0815C148.346 59.7695 149.738 58.3575 151.51 58.3575C154.919 58.3575 156.133 61.2795 156.264 61.6255C156.566 62.4475 157.384 62.9685 158.245 62.9235C159.126 62.8785 159.876 62.2535 160.088 61.3965C160.176 61.0415 161.057 57.9165 164.774 57.9165C167.225 57.9165 168.197 59.6255 168.502 60.3605C169.015 61.5975 168.889 62.8975 168.191 63.5965Z" fill="#AA49FC"/>
</svg>
