<svg width="102" height="96" viewBox="0 0 102 96" fill="none" xmlns="http://www.w3.org/2000/svg">
<path d="M92.8266 83.5589H83.3905C82.6431 83.5589 82.0366 82.9562 82.0366 82.2129C82.0366 81.4695 82.6431 80.8668 83.3905 80.8668H92.8248C96.3445 80.8625 99.2199 78.045 99.2904 74.5603L92.3189 38.9262C92.3021 38.8417 92.2942 38.7556 92.2942 38.6693L89.187 21.6684C89.1721 21.5889 89.165 21.5085 89.165 21.4276V16.8974C89.165 16.1541 89.7715 15.5514 90.5189 15.5514H93.6481C93.7636 15.5514 93.8579 15.4576 93.8579 15.3422C93.8509 8.37511 88.1425 2.69954 81.1322 2.69209H65.4916C65.3752 2.69209 65.2809 2.78586 65.2809 2.9011V7.56669C65.2809 7.66572 65.3523 7.75203 65.4501 7.77197L66.9416 8.06927C67.8979 8.26228 69.0932 9.36251 72.441 12.7971C73.4053 13.7862 74.687 15.101 75.2353 15.5514H78.0057C78.7532 15.5514 79.3596 16.1541 79.3596 16.8974V21.3343C79.3596 21.4653 79.3402 21.5957 79.3023 21.7212L75.9307 32.8927C75.7156 33.6056 74.9558 34.0078 74.2454 33.7951C73.5287 33.5815 73.1224 32.8309 73.3375 32.1189L76.6518 21.1367V18.2435H74.8774C74.0356 18.24 73.4935 17.7459 70.4965 14.6705C69.1778 13.3178 66.9918 11.0746 66.3078 10.6886L64.9124 10.4104C63.555 10.1343 62.573 8.93881 62.573 7.56669V2.9011C62.573 1.30135 63.882 0 65.4916 0H81.134C89.6348 0.00920148 96.557 6.89104 96.5658 15.3409C96.5658 16.9419 95.2568 18.2435 93.6481 18.2435H91.8729V21.3063L94.9527 38.1498C94.9756 38.2668 94.9906 38.3915 94.9977 38.5181L101.975 74.1804C101.992 74.2656 102 74.3522 102 74.4392C101.994 79.4616 97.8783 83.5528 92.8266 83.5589Z" fill="white"/>
<path d="M18.5246 83.5589H9.17928C4.12585 83.5528 0.0102986 79.4616 0.00412842 74.4392V52.1696C0.00324692 50.1667 0.283552 48.1731 0.837993 46.2445L3.00198 38.735L0.542702 31.395C-0.819158 27.3455 0.43252 22.961 3.73095 20.2262L9.38907 15.5374V12.2321C9.38907 11.4569 9.69317 10.7283 10.2441 10.1804L12.5174 7.92029V2.9011C12.5174 1.30135 13.8264 0 15.4359 0H24.8217C26.4304 0 27.7394 1.30135 27.7394 2.9011V7.92029L30.0127 10.1808C30.5636 10.7283 30.8677 11.4569 30.8677 12.2321V15.5376L32.9136 17.2339C33.4874 17.71 33.565 18.559 33.0863 19.1297C32.6068 19.7006 31.7527 19.7777 31.1788 19.3012L28.6464 17.2013C28.3379 16.9456 28.1598 16.5671 28.1598 16.1677V12.2321C28.1598 12.1771 28.1378 12.1234 28.0981 12.0846L25.4282 9.42955C25.1743 9.17717 25.0315 8.83474 25.0315 8.47786V2.9011C25.0315 2.78586 24.9372 2.69209 24.8217 2.69209H15.4359C15.3196 2.69209 15.2252 2.78586 15.2252 2.9011V8.47786C15.2252 8.83474 15.0824 9.17717 14.8286 9.42955L12.1586 12.0842C12.119 12.1234 12.0969 12.1771 12.0969 12.2321V16.1677C12.0969 16.5671 11.9189 16.9459 11.6095 17.2015L5.46479 22.2937C3.02931 24.3132 2.10554 27.5514 3.11129 30.543L5.70367 38.2795C5.79005 38.5371 5.79622 38.8147 5.7213 39.0757L3.44183 46.985C2.95703 48.6717 2.7111 50.416 2.71198 52.1689V74.4374C2.71639 77.9776 5.61817 80.8625 9.18104 80.8668H18.5246C19.272 80.8668 19.8785 81.4695 19.8785 82.2129C19.8785 82.9562 19.272 83.5589 18.5246 83.5589Z" fill="white"/>
<path d="M68.6199 96H31.0784C30.1017 96 29.1947 95.5182 28.6517 94.7111C15.1159 74.407 16.7625 47.2873 32.6535 28.756L34.4173 26.7099V21.5628C34.4173 19.9631 35.7263 18.6615 37.335 18.6615H37.5456V13.7871C37.5456 11.3299 39.5563 9.33075 42.0279 9.33075H54.542C57.0136 9.33075 59.0243 11.3299 59.0243 13.7871V18.6615H59.2349C60.8436 18.6615 62.1526 19.9631 62.1526 21.5628V26.3737L67.9323 30.8898C76.7152 37.7524 82.4871 48.0149 83.7687 59.0459C85.0521 70.0763 81.7863 81.3771 74.8095 90.0501L70.8993 94.9114C70.3422 95.6032 69.5119 96 68.6199 96ZM37.335 21.3536C37.2195 21.3536 37.1252 21.4474 37.1252 21.5628V27.2077C37.1252 27.5289 37.0097 27.8395 36.799 28.0836L34.7117 30.5051C19.6026 48.1251 18.0362 73.9149 30.9047 93.2187C30.9417 93.2726 31.0078 93.3079 31.0784 93.3079H68.6199C68.6842 93.3079 68.7442 93.2794 68.7847 93.2299L72.694 88.3689C79.2239 80.2525 82.279 69.6774 81.0785 59.3551C79.8797 49.0323 74.4781 39.4284 66.2593 33.0066L59.9621 28.0862C59.6351 27.831 59.4447 27.4408 59.4447 27.0278V21.5628C59.4447 21.4474 59.3504 21.3536 59.2349 21.3536H57.6703C56.9229 21.3536 56.3164 20.7509 56.3164 20.0075V13.7871C56.3164 12.8144 55.5204 12.0228 54.542 12.0228H42.0279C41.0495 12.0228 40.2535 12.8144 40.2535 13.7871V20.0075C40.2535 20.7509 39.6471 21.3536 38.8996 21.3536H37.335ZM45.8834 80.435C43.6842 80.435 41.4646 79.9916 39.365 79.0666C32.4014 75.9993 28.493 68.3962 30.07 60.9886C31.6487 53.5829 38.3196 48.209 45.9345 48.209C45.9363 48.209 45.9372 48.209 45.9389 48.209C46.2422 48.209 46.5436 48.2206 46.8416 48.2401C47.1659 48.2614 47.4718 48.3974 47.7027 48.6237C53.5689 54.3617 57.4755 62.4766 59.3134 72.7426C59.3777 73.1017 59.2931 73.471 59.078 73.7666C55.9629 78.0545 50.9783 80.435 45.8834 80.435ZM45.9345 50.9011C39.5906 50.9011 34.0339 55.3772 32.7196 61.5461C31.4054 67.7168 34.6615 74.0501 40.4615 76.6055C46.0897 79.0844 52.7562 77.4106 56.5421 72.6396C54.8047 63.4226 51.3167 56.1151 46.1664 50.9037C46.0906 50.902 46.0147 50.9011 45.9389 50.9011C45.9381 50.9011 45.9363 50.9011 45.9345 50.9011ZM68.7221 78.9823C68.1227 78.9823 67.5154 78.892 66.9169 78.7025C63.7991 77.7153 62.045 74.3829 63.0067 71.2741C64.826 64.8821 63.4959 57.8725 59.4412 52.5528L58.647 51.5167C56.5236 48.7585 57.0454 44.7817 59.8114 42.6542C62.5792 40.5271 66.5802 41.0253 68.7345 43.7636L69.3594 44.558C76.2075 53.1877 78.1018 64.5327 74.4243 74.9036C73.5922 77.3922 71.2369 78.9823 68.7221 78.9823ZM63.7066 44.0245C62.9221 44.0245 62.1332 44.2721 61.4686 44.7836C59.8766 46.0074 59.5769 48.2951 60.7995 49.883L61.5972 50.9241C66.1641 56.9158 67.6608 64.8072 65.6035 72.036C65.0676 73.7694 66.0292 75.5961 67.7384 76.1375C69.4449 76.6773 71.2942 75.7416 71.8566 74.047C71.8601 74.038 71.8628 74.0293 71.8663 74.0205C75.2388 64.5217 73.5058 54.1295 67.2298 46.221L66.6013 45.4221C65.8803 44.505 64.7987 44.0245 63.7066 44.0245Z" fill="white"/>
<path d="M90.1902 22.713H78.3821C77.6346 22.713 77.0281 22.1103 77.0281 21.3669C77.0281 20.6236 77.6346 20.0209 78.3821 20.0209H90.1902C90.9376 20.0209 91.5441 20.6236 91.5441 21.3669C91.5441 22.1103 90.9376 22.713 90.1902 22.713Z" fill="white"/>
<path d="M67.1372 22.7132C66.8693 22.7132 66.5996 22.6346 66.3633 22.4707C65.7498 22.0452 65.6 21.2061 66.0275 20.5967L70.2797 14.5397C70.7081 13.9293 71.5507 13.7808 72.1651 14.2062C72.7786 14.6317 72.9285 15.4708 72.501 16.0803L68.2488 22.1372C67.9852 22.5123 67.5648 22.7132 67.1372 22.7132Z" fill="white"/>
<path d="M30.0259 17.9385H10.7985C10.051 17.9385 9.4446 17.3358 9.4446 16.5925C9.4446 15.8491 10.051 15.2464 10.7985 15.2464H30.0259C30.7734 15.2464 31.3798 15.8491 31.3798 16.5925C31.3798 17.3358 30.7734 17.9385 30.0259 17.9385Z" fill="white"/>
<path d="M60.2777 29.1245H36.1829C35.4354 29.1245 34.829 28.5218 34.829 27.7784C34.829 27.0351 35.4354 26.4324 36.1829 26.4324H60.2777C61.0252 26.4324 61.6316 27.0351 61.6316 27.7784C61.6316 28.5218 61.0252 29.1245 60.2777 29.1245Z" fill="white"/>
</svg>
