<svg width="132" height="155" viewBox="0 0 132 155" fill="none" xmlns="http://www.w3.org/2000/svg">
<path d="M30.0893 130.311L19.2124 123.27L17.7966 125.452L22.0633 128.214L14.8028 139.405L17.1555 140.928L24.4161 129.737L28.6736 132.493L30.0893 130.311Z" fill="white"/>
<path d="M37.5978 133.394L31.7375 131.062L25.8326 145.865L28.4372 146.902L30.323 142.173L33.2756 143.349C34.3874 143.791 35.4583 144 36.488 143.977C37.5177 143.953 38.4589 143.66 39.3116 143.097C40.1646 142.533 40.8066 141.712 41.2375 140.632C41.8442 139.111 41.8205 137.696 41.1668 136.387C40.513 135.078 39.3234 134.08 37.5978 133.394ZM38.5626 139.591C38.2415 140.396 37.6932 140.93 36.9183 141.191C36.1431 141.453 35.2699 141.391 34.2985 141.004L31.2701 139.799L33.3949 134.472L36.4233 135.677C37.4152 136.072 38.105 136.61 38.4925 137.29C38.8797 137.971 38.903 138.738 38.5626 139.591Z" fill="white"/>
<path d="M45.5774 147.989L47.5068 136.515L44.7857 136.059L42.1432 151.774L44.7547 152.212L54.6109 142.101L52.6872 153.543L55.4083 153.999L58.0507 138.284L55.4613 137.85L45.5774 147.989Z" fill="white"/>
<path d="M73.4262 137.605L69.1465 145.477L63.7513 138.322L60.7668 138.543L61.9468 154.435L64.6983 154.231L63.8557 142.883L69.3904 149.961L69.4791 149.954L73.9379 142.091L74.7838 153.484L77.5796 153.277L76.3996 137.385L73.4262 137.605Z" fill="white"/>
<path d="M84.3459 134.887L82.7082 152.322L85.4343 151.424L85.7929 147.258L92.9567 144.899L95.6941 148.046L98.5046 147.121L86.8182 134.073L84.3459 134.887ZM85.9882 144.584L86.5883 137.671L91.208 142.866L85.9882 144.584Z" fill="white"/>
<path d="M103.918 125.58L103.139 139.711L97.0443 129.796L94.693 131.238L103.041 144.817L105.297 143.434L106.075 129.343L112.152 139.23L114.503 137.788L106.156 124.208L103.918 125.58Z" fill="white"/>
<path d="M98.84 124.965C98.0247 125.465 97.2158 125.353 96.4132 124.628L95.122 125.798C95.7761 126.551 96.5226 127.001 97.3617 127.148C98.2008 127.295 99.0311 127.117 99.8529 126.613C100.675 126.109 101.208 125.451 101.453 124.639C101.698 123.827 101.626 122.963 101.237 122.048L99.6367 122.651C99.9018 123.706 99.6363 124.477 98.84 124.965Z" fill="white"/>
<path d="M51.5907 20.8925C52.5445 20.8925 53.3177 20.1202 53.3177 19.1675C53.3177 18.2148 52.5445 17.4425 51.5907 17.4425C50.6369 17.4425 49.8637 18.2148 49.8637 19.1675C49.8637 20.1202 50.6369 20.8925 51.5907 20.8925Z" fill="white"/>
<path d="M130.633 53.6841H73.4579C72.7028 53.6841 72.0906 54.2955 72.0906 55.0497V68.9312C72.0906 69.6854 72.7028 70.2968 73.4579 70.2968H75.5642V77.6998L65.6321 75.0416L65.6297 34.0567H78.1421L65.629 22.741L65.629 21.769C65.629 21.7624 65.6289 21.756 65.6288 21.7494C65.5441 15.9212 63.208 10.4556 59.0509 6.35912C54.8894 2.25831 49.3778 0 43.5313 0C37.6848 0 32.1731 2.25831 28.0117 6.35912C23.8546 10.4556 21.5184 15.9212 21.4337 21.7494C21.4336 21.7558 21.4335 21.7623 21.4335 21.7689C21.4335 21.7689 21.4297 38.6955 21.4297 44.8825C21.4297 49.2194 20.7135 52.5118 19.24 54.9472C17.2186 58.2889 13.3302 59.8776 8.33516 59.8776V59.8788C6.0912 59.9018 3.81201 61.4809 2.22902 64.1143C0.965231 66.2165 -0.425962 69.9641 0.123221 75.8786C0.648862 81.5386 2.84264 88.0219 6.64357 95.1484C9.57071 100.637 13.188 105.677 17.3949 110.131C20.7619 113.695 24.5118 116.892 28.5404 119.634C35.4462 124.333 40.7948 126.078 41.019 126.15C41.294 126.238 41.5757 126.28 41.8548 126.28C42.6406 126.28 43.4047 125.942 43.9333 125.324C44.6495 124.488 44.7931 123.304 44.2974 122.321L43.1959 120.136L45.0881 121.927C45.1098 121.948 45.1318 121.968 45.1543 121.988C48.6249 125.065 52.4864 127.338 56.6314 128.744C59.956 129.872 63.4599 130.444 67.0456 130.444C73.1914 130.444 77.5005 128.75 77.681 128.678C78.5464 128.332 79.1758 127.57 79.351 126.655C79.5262 125.741 79.2231 124.8 78.5466 124.16L71.296 117.294L73.6499 118.556C73.6913 118.578 73.7333 118.599 73.7757 118.619C78.0961 120.655 82.4723 121.687 86.7825 121.687C97.628 121.687 104.365 115.209 104.647 114.933C105.268 114.325 105.562 113.458 105.439 112.598C105.317 111.738 104.791 110.987 104.025 110.577L92.3204 104.306C94.9804 104.975 97.6321 105.314 100.21 105.314C100.583 105.314 100.953 105.304 101.32 105.29H127.159C127.914 105.29 128.526 104.679 128.526 103.925V70.2968H130.633C131.388 70.2968 132 69.6854 132 68.9312V55.0497C132 54.2955 131.388 53.6841 130.633 53.6841ZM71.0476 31.3255H65.6323L65.6303 26.4264L71.0476 31.3255ZM21.5805 56.3598C23.319 53.4859 24.1641 49.7317 24.1641 44.8825C24.1641 38.7829 24.1679 22.2446 24.168 21.7796C24.326 11.2754 33.0103 2.73125 43.5313 2.73125C54.0451 2.73125 62.7246 11.264 62.8939 21.7583L62.8976 74.3097L15.0989 61.5171C17.8802 60.5044 20.1121 58.7871 21.5805 56.3598ZM92.5066 101.532L70.23 95.5704L102.732 112.983C102.732 112.983 96.6356 118.955 86.7825 118.955C83.2763 118.955 79.2944 118.199 74.9424 116.149L54.604 105.252L76.6654 126.142C76.6654 126.142 72.7354 127.712 67.0456 127.712C61.3822 127.712 53.9752 126.156 46.9693 119.945L33.708 107.388L41.8552 123.549C41.8552 123.549 21.3878 116.984 9.05695 93.8643C-2.75094 71.7254 4.96587 62.6083 8.38542 62.6089C8.53693 62.6089 8.68029 62.6269 8.81282 62.6623L118.345 91.9771C114.657 99.1887 108.185 102.278 101.264 102.559H101.189C101.189 102.56 101.189 102.561 101.189 102.562C100.863 102.574 100.537 102.583 100.21 102.583C97.6488 102.583 95.0411 102.211 92.5066 101.532ZM125.792 102.559H111.799C111.824 102.546 111.849 102.534 111.874 102.52C115.688 100.447 118.684 97.318 120.78 93.2197C121.156 92.4855 121.179 91.621 120.844 90.8676C120.509 90.1141 119.851 89.5523 119.053 89.3389L78.2987 78.4316V70.2968H125.792V102.559ZM129.266 67.5655H74.8251V56.4153H129.266V67.5655Z" fill="white"/>
</svg>
