<svg width="204" height="185" viewBox="0 0 204 185" fill="none" xmlns="http://www.w3.org/2000/svg">
<path d="M111.392 0C67.8689 0 31.2876 30.2471 21.5364 70.8217C9.63239 70.8848 0 80.5508 0 92.4697C0 104.398 9.64746 114.072 21.5646 114.119C31.3558 154.638 67.9083 184.832 111.392 184.832C162.35 184.832 203.808 143.374 203.808 92.416C203.808 41.458 162.35 0 111.392 0ZM13.4238 97.776H16.9808C17.1207 100.427 18.9678 101.542 21.0248 101.542C23.3257 101.542 25.0698 100.043 25.0698 97.428C25.0698 94.917 23.7108 93.349 20.9208 93.349H20.3278V90.245H20.9208C23.5007 90.245 24.6857 88.746 24.6857 86.479C24.6857 83.97 23.0468 82.645 21.0248 82.645C18.8627 82.645 17.4678 84.004 17.2947 86.201H13.7377C13.9468 81.982 17.0497 79.437 21.0248 79.437C25.2438 79.437 28.2427 82.261 28.2427 86.375C28.2427 89.025 27.0568 90.733 25.1398 91.675C27.2657 92.616 28.6268 94.464 28.6268 97.532C28.6268 102.31 25.1738 104.75 21.0248 104.75C17.0497 104.75 13.5637 102.623 13.4238 97.776ZM111.392 180.832C69.9969 180.832 35.1737 152.23 25.5999 113.756C35.6722 111.9 43.3051 103.079 43.3051 92.4697C43.3051 81.8484 35.655 73.0204 25.5657 71.1781C35.1018 32.6506 69.959 4 111.392 4C160.145 4 199.808 43.663 199.808 92.416C199.808 141.169 160.145 180.832 111.392 180.832Z" fill="#AA49FC"/>
<path d="M87.1077 94.1547L155.283 70.4553L138.061 20.9113L129.148 24.0099L122.814 13.0236L40.7579 60.3316L66.9559 105.773L87.1077 94.1547ZM121.713 17.1206L144.915 57.3646L68.0569 101.675L44.8559 61.4326L121.713 17.1206Z" fill="#AA49FC"/>
<path d="M82.0388 52.6509C82.6267 53.0029 83.3867 52.8109 83.7397 52.2239C83.7728 52.1679 87.1267 46.6699 91.4448 47.5939C93.3347 47.9989 94.6257 48.8839 95.2817 50.2239C95.9107 51.5089 95.9297 53.2079 95.3677 55.1409L84.1867 61.5859C83.5927 61.9289 83.3887 62.6869 83.7318 63.2809C84.0747 63.8749 84.8337 64.0779 85.4268 63.7359L93.7888 58.9149C93.0897 60.4919 92.4977 62.1029 92.1697 63.6779L87.0847 66.6099C86.4907 66.9529 86.2867 67.7119 86.6277 68.3059C86.9708 68.8999 87.7297 69.1029 88.3237 68.7609L91.9167 66.6899C92.0427 68.7799 92.8917 70.7139 94.9147 72.2969C98.0327 74.7379 101.632 73.6479 103.941 72.3169C104.812 71.8139 105.501 71.2769 105.908 70.8839C106.894 69.9299 108.321 67.9069 108.48 67.6799C108.874 67.1189 108.738 66.3459 108.176 65.9519C107.615 65.5589 106.84 65.6939 106.448 66.2559C106.052 66.8199 104.874 68.4309 104.183 69.0989C104.142 69.1389 99.7968 72.9679 96.4448 70.3429C94.8507 69.0959 94.1737 67.5059 94.4188 65.2459L105.637 58.7779C106.231 58.4369 106.435 57.6779 106.092 57.0839C105.751 56.4899 104.992 56.2859 104.398 56.6289L95.2628 61.8959C95.6298 60.8759 96.1107 59.7569 96.7067 58.5229C96.9868 57.9429 97.2247 57.3749 97.4287 56.8159L102.741 53.7539C103.335 53.4119 103.539 52.6529 103.196 52.0599C102.854 51.4659 102.095 51.2619 101.502 51.6049L98.2167 53.4969C98.3687 51.8829 98.1357 50.4109 97.5107 49.1329C96.5167 47.1029 94.5997 45.7319 91.9637 45.1669C85.8997 43.8689 81.7797 50.6629 81.6077 50.9529C81.2578 51.5409 81.4507 52.3009 82.0388 52.6509Z" fill="#AA49FC"/>
<path d="M99.6792 78.2205L96.1912 78.0975C89.8272 77.8735 83.6982 73.9595 80.1972 67.8865C76.5882 61.6255 76.3602 54.2055 79.6042 48.5205L81.4332 45.3155L51.2102 62.7405L70.0002 95.3315L99.6792 78.2205ZM66.2142 75.9275C64.9152 73.6735 65.6922 70.7825 67.9452 69.4825C68.6872 69.0555 69.4952 68.8525 70.2943 68.8525C71.9272 68.8525 73.5182 69.7005 74.3912 71.2135C75.6902 73.4675 74.9132 76.3585 72.6592 77.6595C70.4042 78.9575 67.5142 78.1795 66.2142 75.9275Z" fill="#AA49FC"/>
<path d="M109.323 51.0942C112.824 57.1682 113.14 64.4322 110.144 70.0532L108.504 73.1332L138.686 55.7312L119.896 23.1402L89.1714 40.8542L92.8615 40.8782C99.4055 40.9192 105.714 44.8342 109.323 51.0942ZM124.267 46.1842C123.94 47.4012 123.159 48.4182 122.067 49.0482C119.81 50.3452 116.922 49.5702 115.622 47.3172C114.993 46.2242 114.826 44.9532 115.153 43.7352C115.479 42.5182 116.261 41.5022 117.353 40.8722C118.08 40.4532 118.886 40.2392 119.703 40.2392C120.113 40.2392 120.527 40.2932 120.934 40.4022C122.151 40.7292 123.168 41.5102 123.798 42.6032C124.428 43.6952 124.595 44.9672 124.267 46.1842Z" fill="#AA49FC"/>
<path d="M175.762 122.194L158.474 92.4026C155.617 87.4796 149.29 85.8046 144.369 88.6566L92.2355 118.911C87.3155 121.766 85.6355 128.093 88.4894 133.014L105.778 162.805C107.69 166.1 111.159 167.942 114.72 167.942C116.476 167.942 118.256 167.494 119.881 166.551L172.015 136.297V136.296C176.935 133.441 178.616 127.115 175.762 122.194ZM93.7415 121.505L145.875 91.2516C147.028 90.5816 148.29 90.2646 149.536 90.2646C152.061 90.2646 154.522 91.5716 155.878 93.9086L157.982 97.5337L93.1898 135.134L91.0854 131.508C89.0594 128.018 90.2524 123.531 93.7415 121.505ZM170.51 133.703V133.702L118.375 163.955C114.885 165.98 110.397 164.789 108.373 161.299L96.9931 141.688L161.786 104.089L173.166 123.7C175.191 127.189 173.999 131.676 170.51 133.703Z" fill="#AA49FC"/>
<path d="M128.043 144.5C127.672 143.862 126.847 143.643 126.208 144.013L114.436 150.844C113.798 151.215 113.578 152.039 113.949 152.679L115.265 154.945C115.635 155.583 116.461 155.802 117.099 155.432L128.871 148.602C129.51 148.231 129.728 147.406 129.358 146.766L128.043 144.5Z" fill="#AA49FC"/>
<path d="M152.654 119.465C151.861 119.925 151.21 120.534 150.707 121.233C148.794 120.815 146.828 121.112 145.129 122.098C141.402 124.262 140.129 129.054 142.29 132.781C143.338 134.586 145.027 135.877 147.045 136.412C147.707 136.588 148.386 136.678 149.061 136.678C150.428 136.678 151.78 136.312 152.974 135.619C154.675 134.632 155.911 133.071 156.498 131.204C157.353 131.113 158.203 130.85 158.994 130.391C162.012 128.64 163.038 124.775 161.287 121.758C159.536 118.741 155.672 117.715 152.654 119.465ZM150.362 128.098C151.094 129.359 152.198 130.266 153.452 130.774C153.046 131.712 152.369 132.502 151.469 133.024C150.357 133.669 149.059 133.844 147.815 133.513C146.572 133.183 145.531 132.387 144.886 131.275C143.553 128.979 144.338 126.026 146.635 124.693C147.367 124.268 148.199 124.044 149.041 124.044C149.22 124.044 149.397 124.059 149.572 124.079C149.389 125.422 149.629 126.834 150.362 128.098Z" fill="#AA49FC"/>
<path d="M157.37 56.5812C158.709 56.5812 159.794 55.4952 159.794 54.1562C159.794 52.8172 158.709 51.7322 157.37 51.7322C156.031 51.7322 154.945 52.8172 154.945 54.1562C154.945 55.4952 156.031 56.5812 157.37 56.5812Z" fill="#AA49FC"/>
<path d="M163.906 66.5285C165.245 66.5285 166.331 65.4425 166.331 64.1045C166.331 62.7655 165.245 61.6795 163.906 61.6795C162.567 61.6795 161.482 62.7655 161.482 64.1045C161.482 65.4425 162.567 66.5285 163.906 66.5285Z" fill="#AA49FC"/>
<path d="M168.755 77.6095C170.094 77.6095 171.179 76.5245 171.179 75.1855C171.179 73.8465 170.094 72.7605 168.755 72.7605C167.416 72.7605 166.331 73.8465 166.331 75.1855C166.331 76.5245 167.416 77.6095 168.755 77.6095Z" fill="#AA49FC"/>
<path d="M170.966 89.4542C172.305 89.4542 173.39 88.369 173.39 87.0302C173.39 85.6915 172.305 84.6062 170.966 84.6062C169.627 84.6062 168.542 85.6915 168.542 87.0302C168.542 88.369 169.627 89.4542 170.966 89.4542Z" fill="#AA49FC"/>
<path d="M170.816 97.2137C169.478 97.2137 168.392 98.2987 168.392 99.6377C168.392 100.977 169.478 102.062 170.816 102.062C172.155 102.062 173.241 100.977 173.241 99.6377C173.241 98.2987 172.155 97.2137 170.816 97.2137Z" fill="#AA49FC"/>
<path d="M74.2304 137.708C72.9224 137.99 72.0905 139.279 72.3715 140.588C72.6534 141.898 73.9434 142.73 75.2524 142.447C76.5604 142.165 77.3925 140.876 77.1115 139.567C76.8294 138.258 75.5394 137.426 74.2304 137.708Z" fill="#AA49FC"/>
<path d="M85.9306 144.434C84.6226 144.715 83.7896 146.005 84.0717 147.314C84.3536 148.623 85.6436 149.456 86.9526 149.173C88.2606 148.891 89.0927 147.601 88.8106 146.293C88.5296 144.984 87.2396 144.152 85.9306 144.434Z" fill="#AA49FC"/>
<path d="M65.7441 129.361C64.4361 129.642 63.6041 130.932 63.8861 132.241C64.1681 133.55 65.4571 134.383 66.7661 134.1C68.0751 133.818 68.9071 132.528 68.6251 131.22C68.3431 129.911 67.0541 129.079 65.7441 129.361Z" fill="#AA49FC"/>
<path d="M58.6708 119.55C57.3619 119.832 56.5298 121.121 56.8119 122.431C57.0939 123.74 58.3829 124.572 59.6929 124.289C61.0009 124.007 61.8329 122.718 61.5508 121.41C61.2689 120.1 59.9799 119.268 58.6708 119.55Z" fill="#AA49FC"/>
<path d="M56.8936 110.296C56.6126 108.986 55.3226 108.154 54.0136 108.436C52.7056 108.718 51.8726 110.007 52.1547 111.317C52.4366 112.626 53.7266 113.458 55.0356 113.175C56.3436 112.893 57.1757 111.604 56.8936 110.296Z" fill="#AA49FC"/>
<path d="M54.3849 97.9399C54.1028 96.6309 52.8129 95.7989 51.5038 96.0799C50.1959 96.3619 49.3639 97.6519 49.6449 98.9609C49.9269 100.27 51.2169 101.102 52.5259 100.82C53.8339 100.538 54.6669 99.2479 54.3849 97.9399Z" fill="#AA49FC"/>
</svg>
