<svg width="171" height="56" viewBox="0 0 171 56" fill="none" xmlns="http://www.w3.org/2000/svg">
<g opacity="0.6">
<path d="M49.212 17.1063C49.212 17.1063 53.3258 22.9748 53.6843 23.815L56.9476 16.9578H60.7704L52.939 30.8963L49.5846 30.9976L52.1936 26.424L45.9293 17.1063H49.212Z" fill="white"/>
<path d="M65.8354 16.9578V22.6965H66.1459L71.2005 16.9578H75.0096L68.5913 23.4422C68.5913 23.4422 74.9274 30.8963 74.9378 30.772H71.0197C70.4702 29.829 66.5284 24.9922 66.5284 24.9922H65.8354V30.772H62.2279V16.9578H65.8354Z" fill="white"/>
<path d="M76.6826 17.1425C77.8056 16.9785 79.3825 16.8556 81.6043 16.8556C83.8499 16.8556 85.4505 17.2246 86.5258 17.9624C87.5534 18.6594 88.246 19.8072 88.246 21.1598C88.246 22.5126 87.7202 23.6603 86.7649 24.439C85.5223 25.4433 83.6828 25.894 81.5326 25.894C81.0551 25.894 80.6248 25.8737 80.2904 25.8326V30.7722H76.6826V17.1425ZM80.2903 23.4144C80.6007 23.4757 80.9832 23.4964 81.5088 23.4964C83.4441 23.4964 84.6385 22.656 84.6385 21.2416C84.6385 19.971 83.6111 19.2125 81.7953 19.2125C81.0549 19.2125 80.553 19.274 80.2903 19.3357V23.4144Z" fill="white"/>
<path d="M103.586 16.9578V30.772H99.9306V19.5197H94.2206V30.772H90.5654V16.9578H103.586Z" fill="white"/>
<path d="M121.482 23.7212C121.482 28.2507 118.281 30.9974 113.574 30.9974C108.796 30.9974 106 27.9026 106 23.9673C106 19.8271 109.083 16.7323 113.837 16.7323C118.782 16.7323 121.482 19.9092 121.482 23.7212ZM109.847 23.9058C109.847 26.6111 111.328 28.5172 113.765 28.5172C116.226 28.5172 117.636 26.5087 117.636 23.8237C117.636 21.3439 116.25 19.2122 113.741 19.2122C111.281 19.2122 109.847 21.221 109.847 23.9058Z" fill="white"/>
<path d="M127.457 16.9578V28.2101H131.423V16.9578H134.983V28.2101H138.973V16.9578H142.532V30.772H123.873V16.9578H127.457Z" fill="white"/>
<path d="M148.794 19.5814H144.47V16.9578H156.845V19.5814H152.45V30.772H148.794V19.5814Z" fill="white"/>
<path d="M160.736 27.2263L159.59 30.772H155.815L160.737 16.9578H165.515L170.508 30.772H166.59L165.347 27.2263H160.736ZM164.822 24.8898L163.819 21.9585C163.532 21.139 163.245 20.1141 163.006 19.2944H162.958C162.719 20.1141 162.481 21.1593 162.218 21.9587L161.262 24.8899L164.822 24.8898Z" fill="white"/>
<path d="M52.8568 37.1398V37.714H49.894V42.9161H48.6741V37.1398H52.8568Z" fill="white"/>
<path d="M59.0986 39.9841C59.0986 42.1524 57.7203 42.9837 56.009 42.9837C54.2347 42.9837 53.0462 41.964 53.0462 40.0183C53.0462 38.1072 54.3135 37.0702 56.1832 37.0702C58.0053 37.0701 59.0986 38.1414 59.0986 39.9841ZM54.3137 40.0268C54.3137 41.2181 54.7417 42.4007 56.0884 42.4007C57.4667 42.4007 57.8311 41.1412 57.8311 40.0096C57.8311 38.9298 57.4667 37.6529 56.0724 37.6529C54.7417 37.6529 54.3137 38.8529 54.3137 40.0268Z" fill="white"/>
<path d="M65.4065 37.1398V42.9161H64.1864V37.714H61.9368V39.6854C61.9368 41.185 61.8417 42.3421 60.6376 42.7963C60.3683 42.9078 60.0354 42.9763 59.6552 42.9763L59.4175 42.419C59.6236 42.3933 59.8295 42.3504 59.9878 42.2731C60.6376 41.9648 60.8119 41.2018 60.8119 39.7793V37.1398H65.4065Z" fill="white"/>
<path d="M72.9337 39.9841C72.9337 42.1524 71.5552 42.9837 69.8439 42.9837C68.0696 42.9837 66.8811 41.964 66.8811 40.0183C66.8811 38.1072 68.1488 37.0702 70.0181 37.0702C71.8402 37.0701 72.9337 38.1414 72.9337 39.9841ZM68.149 40.0268C68.149 41.2181 68.5766 42.4007 69.9233 42.4007C71.3016 42.4007 71.666 41.1412 71.666 40.0096C71.666 38.9298 71.3016 37.6529 69.9073 37.6529C68.5766 37.6529 68.149 38.8529 68.149 40.0268Z" fill="white"/>
<path d="M74.3931 37.2249C74.9001 37.1564 75.5021 37.1135 76.1834 37.1135C77.1498 37.1135 77.9737 37.2249 78.5441 37.5163C79.0035 37.7476 79.2412 38.0903 79.2412 38.5018C79.2412 39.093 78.639 39.5644 77.5934 39.7874V39.8044C78.8295 39.9845 79.5742 40.5244 79.5742 41.2785C79.5742 41.7583 79.2889 42.1442 78.8135 42.4269C78.2115 42.7955 77.2132 42.9497 75.9934 42.9497C75.2011 42.9497 74.7257 42.9242 74.3931 42.89V37.2249ZM75.6132 39.5903H76.1674C77.1658 39.5903 78.0214 39.179 78.0214 38.5704C78.0214 38.0393 77.5617 37.6276 76.2627 37.6276C75.9774 37.6276 75.7557 37.6446 75.6132 37.6707V39.5903ZM75.6132 42.3927C75.7557 42.4097 75.9615 42.4271 76.2308 42.4271C77.4984 42.4271 78.3225 42.0243 78.3225 41.2787C78.3225 40.4816 77.2925 40.1044 76.1519 40.0959H75.6132V42.3927Z" fill="white"/>
<path d="M82.2048 37.1398V39.6168H85.1993V37.1398H86.4192V42.9161H85.1993V40.2165H82.2048V42.9161H80.9847V37.1398H82.2048Z" fill="white"/>
<path d="M89.6013 41.185L88.8882 42.9161H87.7159L90.1561 37.1398H91.5028L93.8791 42.9161H92.6749L91.962 41.185H89.6013ZM91.8037 40.6533L91.2489 39.1881C91.0906 38.7766 90.948 38.2967 90.8213 37.8681H90.7579C90.631 38.3053 90.4726 38.8024 90.3299 39.1881L89.7757 40.6535L91.8037 40.6533Z" fill="white"/>
<path d="M103.055 37.1398V42.9161H101.835V37.714H98.9197V42.9161H97.6996V37.1398H103.055Z" fill="white"/>
<path d="M110.565 39.9841C110.565 42.1524 109.187 42.9837 107.476 42.9837C105.701 42.9837 104.513 41.964 104.513 40.0183C104.513 38.1072 105.781 37.0702 107.65 37.0702C109.472 37.0701 110.565 38.1414 110.565 39.9841ZM105.781 40.0268C105.781 41.2181 106.208 42.4007 107.555 42.4007C108.933 42.4007 109.298 41.1412 109.298 40.0096C109.298 38.9298 108.933 37.6529 107.539 37.6529C106.208 37.6529 105.781 38.8529 105.781 40.0268Z" fill="white"/>
<path d="M113.229 37.1398V42.3419H115.495V37.1398H116.683V42.3419H118.949V37.1398H120.137V42.9161H112.025V37.1398H113.229Z" fill="white"/>
<path d="M123.181 37.731H121.233V37.1398H126.35V37.731H124.401V42.9161H123.181V37.731Z" fill="white"/>
<path d="M127.919 41.185L127.206 42.9161H126.034L128.473 37.1398H129.82L132.197 42.9161H130.993L130.28 41.185H127.919ZM130.121 40.6533L129.567 39.1881C129.408 38.7766 129.265 38.2967 129.139 37.8681H129.076C128.949 38.3053 128.79 38.8024 128.647 39.1881L128.093 40.6535L130.121 40.6533Z" fill="white"/>
<path d="M137.216 37.1398V39.7624H137.438L139.719 37.1398H141.035L138.288 39.8413C138.288 39.8413 140.813 42.419 141.146 42.9161H139.91C139.656 42.5391 137.407 40.2507 137.407 40.2507H137.216V42.9161H136.012V37.1398H137.216Z" fill="white"/>
<path d="M142.211 37.2249C142.702 37.1564 143.288 37.1135 143.985 37.1135C144.967 37.1135 145.791 37.242 146.346 37.542C146.869 37.8163 147.138 38.2362 147.138 38.7333C147.138 39.2646 146.9 39.6247 146.488 39.916C145.902 40.3447 144.92 40.5587 143.969 40.5587C143.763 40.5587 143.605 40.5587 143.431 40.5501V42.9157H142.211V37.2249ZM143.431 39.9931C143.573 40.0102 143.7 40.0187 143.906 40.0187C145.11 40.0187 145.918 39.5901 145.918 38.776C145.918 38.1848 145.459 37.6531 144.112 37.6531C143.827 37.6531 143.589 37.6705 143.431 37.6962L143.431 39.9931Z" fill="white"/>
<path d="M148.962 41.185L148.249 42.9161H147.077L149.516 37.1398H150.863L153.24 42.9161H152.035L151.322 41.185H148.962ZM151.164 40.6533L150.609 39.1881C150.451 38.7766 150.308 38.2967 150.182 37.8681H150.119C149.991 38.3053 149.833 38.8024 149.69 39.1881L149.136 40.6535L151.164 40.6533Z" fill="white"/>
<path d="M155.79 37.1398V42.9161H154.57V37.1398H155.79Z" fill="white"/>
<path d="M158.944 37.1398V39.6168H161.938V37.1398H163.158V42.9161H161.938V40.2165H158.944V42.9161H157.724V37.1398H158.944Z" fill="white"/>
<path d="M166.166 37.1398V39.2051C166.166 40.2078 166.119 40.9449 166.024 41.8535H166.055C166.42 41.2279 166.99 40.4651 167.434 39.8395L169.351 37.1398H170.491V42.9161H169.398V40.9192C169.398 39.685 169.43 38.9653 169.525 38.1937H169.493C169.113 38.9137 168.622 39.548 168.21 40.1307L166.214 42.9161H165.057V37.1398H166.166Z" fill="white"/>
<path d="M15.8288 26.1562C13.0666 24.3348 11.1156 21.3256 11.1156 17.7751C11.1156 12.36 15.5055 7.97012 20.9205 7.97012C26.3357 7.97012 30.7255 12.36 30.7255 17.7751C30.7255 22.1405 27.8719 25.8378 23.929 27.1079C24.6556 27.3325 25.3743 27.5878 26.1044 27.8067C27.5077 28.2279 28.9391 28.5705 30.3549 28.948C31.8038 29.3343 33.2425 29.7073 34.721 29.9658C34.8928 29.9959 35.0646 30.0255 35.2366 30.0551C37.4157 26.9528 38.6957 23.1732 38.6957 19.094C38.6957 8.54871 30.147 0 19.6018 0C9.05651 0 0.507812 8.54871 0.507812 19.094C0.507812 33.5435 19.6018 55.5617 19.6018 55.5617C19.6018 55.5617 31.8724 42.9471 37.2622 32.7406C37.2106 32.7317 18.6845 28.0389 15.8288 26.1562Z" fill="white"/>
</g>
</svg>
