<svg width="126" height="55" viewBox="0 0 126 55" fill="none" xmlns="http://www.w3.org/2000/svg">
<g opacity="0.6">
<path d="M89.0811 43.8755H96.658C96.8629 43.8755 96.9652 43.7715 96.9652 43.5636V17.7788C96.9652 17.5708 96.8629 17.467 96.658 17.467H89.0811C88.8762 17.467 88.7738 17.5708 88.7738 17.7788V43.4596C88.7738 43.6676 88.8762 43.8755 89.0811 43.8755Z" fill="white"/>
<path d="M113.143 16.739C102.392 16.739 101.368 23.3931 101.368 25.1605V43.5634C101.368 43.7714 101.47 43.8752 101.675 43.8752H109.252C109.457 43.8752 109.559 43.7714 109.559 43.5634V27.448C109.559 25.0565 110.89 23.9129 113.143 23.9129C115.396 23.9129 116.624 25.6804 116.624 27.448C116.624 29.0074 116.727 41.4839 116.727 43.6674C116.727 43.8752 116.829 43.9792 117.034 43.9792H124.713C124.918 43.9792 125.021 43.8752 125.021 43.6674C125.021 42.1078 125.021 35.1417 125.021 26.6161C125.021 16.739 116.113 16.739 113.143 16.739Z" fill="white"/>
<path d="M78.842 33.2708C78.842 32.5429 78.842 28.3842 78.842 24.5373H84.6783C84.883 24.5373 84.9854 24.4333 84.9854 24.2253V17.9871C84.9854 17.7791 84.883 17.6751 84.6783 17.6751H78.842C78.842 15.1799 78.842 13.2044 78.842 12.4766C78.842 12.2687 78.7394 12.1647 78.5348 12.1647H70.8553C70.6506 12.1647 70.5481 12.2687 70.5481 12.4766C70.5481 14.4521 70.5481 25.369 70.5481 34.2065C70.5481 43.8757 79.149 43.9797 82.2208 43.9797H84.7807C84.9854 43.9797 85.0879 43.8757 85.0879 43.6677V37.8454C85.0879 37.6374 84.9854 37.5335 84.7807 37.5335C82.0161 37.4295 78.842 36.7018 78.842 33.2708Z" fill="white"/>
<path d="M6.14352 40.4444C6.14352 42.1079 5.32438 44.6032 0.307177 44.7072C0.102392 44.7072 0 44.8112 0 45.0192V50.8415C0 51.0494 0.102392 51.1534 0.307177 51.1534H2.86697C5.93874 51.1534 14.5397 51.0494 14.5397 41.3802C14.5397 32.4388 14.5397 19.9623 14.5397 17.7788C14.5397 17.5708 14.4373 17.467 14.2325 17.467H6.5531C6.34832 17.467 6.24592 17.5708 6.24592 17.7788C6.24592 20.3781 6.14352 38.781 6.14352 40.4444Z" fill="white"/>
<path d="M33.3797 34.3101C33.3797 36.7014 32.0487 37.8451 29.796 37.8451C27.5433 37.8451 26.3147 36.0777 26.3147 34.3101C26.3147 32.7505 26.2123 19.9623 26.2123 17.7788C26.2123 17.5708 26.11 17.467 25.9051 17.467H18.2258C18.0209 17.467 17.9186 17.5708 17.9186 17.7788C17.9186 19.3384 17.9186 26.6163 17.9186 35.2458C17.9186 45.0192 26.8267 45.0192 29.796 45.0192C40.5473 45.0192 41.5711 38.365 41.5711 36.5975V17.7788C41.5711 17.5708 41.4687 17.467 41.264 17.467H33.6869C33.4822 17.467 33.3797 17.5708 33.3797 17.7788V34.3101Z" fill="white"/>
<path d="M61.64 28.4877C61.4351 28.4877 56.6227 27.552 56.4179 27.552C54.2677 27.1361 52.8342 26.4084 52.8342 25.0567C52.8342 24.1211 53.551 22.5615 56.4179 22.5615C59.4897 22.5615 59.8992 24.4328 59.8992 25.3687C59.8992 25.5767 60.0016 25.6807 60.2064 25.6807H66.8619C67.0668 25.6807 67.1691 25.5767 67.1691 25.3687C67.0668 22.2495 65.4284 16.4272 55.7011 16.4272C48.329 16.4272 44.7452 20.1702 44.7452 25.3687C44.7452 29.4236 47.305 31.5029 50.7864 32.4386C53.2437 33.0625 59.7969 33.0625 59.7969 36.1816C59.7969 37.1173 59.0801 38.6768 56.2132 38.6768C53.039 38.6768 52.3223 36.7015 52.2199 35.7656C52.2199 35.5578 52.0151 35.4538 51.9127 35.4538H44.7452C44.5405 35.4538 44.4381 35.5578 44.4381 35.7656C44.5405 38.3649 46.3836 45.0191 56.1107 45.0191C63.7901 45.0191 67.681 41.4841 67.681 35.9736C67.681 31.9189 65.1213 29.3196 61.64 28.4877Z" fill="white"/>
<path d="M98.2962 7.6937L88.7738 11.4366V16.6352L95.2245 14.1399C97.0676 13.4121 98.2962 11.6446 98.2962 9.56516V7.6937Z" fill="white"/>
<path d="M101.061 0L88.7738 4.78264V9.98117L97.9892 6.44617C99.8321 5.71838 101.061 3.95089 101.061 1.87147V0Z" fill="white"/>
<path d="M50.1721 54.7921H48.9434V51.5689L47.5099 53.9602H47.4075L45.9741 51.5689V54.7921H44.7453V49.2816H45.9741L47.4075 51.7769L48.8411 49.2816H50.0697V54.7921H50.1721Z" fill="white"/>
<path d="M52.8348 49.2816V54.7921H51.6056V49.2816H52.8348Z" fill="white"/>
<path d="M57.3396 51.8817L55.2916 54.8967H54.3701V49.2824H55.5988V52.2975L57.6466 49.2824H58.5683V54.7927H57.3396V51.8817ZM55.2916 47.8268H57.6466V48.8665H55.2916V47.8268Z" fill="white"/>
<path d="M66.6571 54.7921H65.4284V50.5293H63.7902V54.7921H62.5615V49.2816H66.6571V54.7921Z" fill="white"/>
<path d="M67.9883 52.0888C67.9883 50.4252 69.217 49.1775 70.8552 49.1775C72.3911 49.1775 73.7223 50.4252 73.7223 52.0888C73.7223 53.7524 72.4936 55 70.8552 55C69.217 54.896 67.9883 53.7524 67.9883 52.0888ZM72.3911 52.0888C72.3911 51.1531 71.6743 50.4252 70.8552 50.4252C70.0361 50.4252 69.3193 51.0491 69.3193 52.0888C69.3193 53.1284 70.0361 53.7524 70.8552 53.7524C71.6743 53.7524 72.3911 53.0245 72.3911 52.0888Z" fill="white"/>
<path d="M81.197 49.2816V54.7921H74.8485V49.2816H76.0772V53.5445H77.4084V49.2816H78.6371V53.5445H79.9681V49.2816H81.197Z" fill="white"/>
<path d="M86.3165 50.5293H84.883V54.7921H83.6543V50.5293H82.2208V49.2816H86.214V50.5293H86.3165Z" fill="white"/>
<path d="M86.9308 52.0888C86.9308 50.4252 88.1597 49.1775 89.7979 49.1775C91.3338 49.1775 92.6648 50.4252 92.6648 52.0888C92.6648 53.7524 91.4361 55 89.7979 55C88.1597 54.896 86.9308 53.7524 86.9308 52.0888ZM91.3338 52.0888C91.3338 51.1531 90.617 50.4252 89.7979 50.4252C88.8763 50.4252 88.262 51.0491 88.262 52.0888C88.262 53.1284 88.9788 53.7524 89.7979 53.7524C90.617 53.7524 91.3338 53.0245 91.3338 52.0888Z" fill="white"/>
<path d="M99.2183 54.7921H97.9896V51.5689L96.556 53.9602H96.4537L95.0202 51.5689V54.7921H93.7915V49.2816H95.0202L96.4537 51.7769L97.8871 49.2816H99.1159V54.7921H99.2183Z" fill="white"/>
<path d="M103.825 53.9602H101.778L101.47 54.7921H100.139L101.982 49.2816H103.518L105.361 54.7921H104.03L103.825 53.9602ZM103.518 52.8166L102.904 50.8412L102.29 52.8166H103.518Z" fill="white"/>
<path d="M110.481 51.2571C110.481 52.2968 109.662 53.1285 108.535 53.1285H107.716V54.8961H106.488V49.2816H108.535C109.662 49.2816 110.481 50.1133 110.481 51.2571ZM109.252 51.2571C109.252 50.8412 108.945 50.5293 108.638 50.5293H107.716V51.9849H108.535C108.945 51.8809 109.252 51.5689 109.252 51.2571Z" fill="white"/>
<path d="M114.577 54.7921L112.836 52.1928V54.7921H111.607V49.2816H112.836V51.6729L114.474 49.2816H115.908L114.065 51.9849L116.01 54.7921H114.577Z" fill="white"/>
<path d="M120.413 53.6485V54.8961H117.034V49.2816H120.413V50.5293H118.263V51.4649H120.208V52.7126H118.263V53.6485H120.413Z" fill="white"/>
<path d="M125.328 50.5293H123.894V54.7921H122.666V50.5293H121.232V49.2816H125.225V50.5293H125.328Z" fill="white"/>
</g>
</svg>
