<svg width="48" height="4" viewBox="0 0 48 4" fill="none" xmlns="http://www.w3.org/2000/svg">
<path d="M44.426 2C44.426 0.890137 45.2209 0 46.213 0C47.1955 0 48 0.890137 48 2C48 3.1001 47.1955 4 46.213 4C45.2209 4 44.426 3.1001 44.426 2ZM35.5354 2C35.5354 0.890137 36.3399 0 37.3311 0C38.3145 0 39.1181 0.890137 39.1181 2C39.1181 3.1001 38.3145 4 37.3311 4C36.3399 4 35.5354 3.1001 35.5354 2ZM26.6535 2C26.6535 0.890137 27.458 0 28.4405 0C29.4239 0 30.2275 0.890137 30.2275 2C30.2275 3.1001 29.4239 4 28.4405 4C27.458 4 26.6535 3.1001 26.6535 2ZM17.7638 2C17.7638 0.890137 18.5674 0 19.5595 0C20.542 0 21.3465 0.890137 21.3465 2C21.3465 3.1001 20.542 4 19.5595 4C18.5674 4 17.7638 3.1001 17.7638 2ZM8.88188 2C8.88188 0.890137 9.68638 0 10.6689 0C11.661 0 12.4559 0.890137 12.4559 2C12.4559 3.1001 11.661 4 10.6689 4C9.68638 4 8.88188 3.1001 8.88188 2ZM0 2C0 0.890137 0.795783 0 1.78702 0C2.77041 0 3.57404 0.890137 3.57404 2C3.57404 3.1001 2.77041 4 1.78702 4C0.795783 4 0 3.1001 0 2Z" fill="#8B42EE"/>
</svg>
