<svg width="37" height="4" viewBox="0 0 37 4" fill="none" xmlns="http://www.w3.org/2000/svg">
<path d="M34.245 2C34.245 0.890137 34.8578 0 35.6225 0C36.3799 0 37 0.890137 37 2C37 3.1001 36.3799 4 35.6225 4C34.8578 4 34.245 3.1001 34.245 2ZM27.3918 2C27.3918 0.890137 28.012 0 28.7761 0C29.5341 0 30.1536 0.890137 30.1536 2C30.1536 3.1001 29.5341 4 28.7761 4C28.012 4 27.3918 3.1001 27.3918 2ZM20.5454 2C20.5454 0.890137 21.1655 0 21.9229 0C22.6809 0 23.3004 0.890137 23.3004 2C23.3004 3.1001 22.6809 4 21.9229 4C21.1655 4 20.5454 3.1001 20.5454 2ZM13.6929 2C13.6929 0.890137 14.3124 0 15.0771 0C15.8345 0 16.4546 0.890137 16.4546 2C16.4546 3.1001 15.8345 4 15.0771 4C14.3124 4 13.6929 3.1001 13.6929 2ZM6.84645 2C6.84645 0.890137 7.46659 0 8.22394 0C8.98869 0 9.60144 0.890137 9.60144 2C9.60144 3.1001 8.98869 4 8.22394 4C7.46659 4 6.84645 3.1001 6.84645 2ZM0 2C0 0.890137 0.613416 0 1.3775 0C2.13552 0 2.75499 0.890137 2.75499 2C2.75499 3.1001 2.13552 4 1.3775 4C0.613416 4 0 3.1001 0 2Z" fill="#8B42EE"/>
</svg>
