<svg width="172" height="61" viewBox="0 0 172 61" fill="none" xmlns="http://www.w3.org/2000/svg">
<g opacity="0.6">
<path d="M103.918 14.3609C106.763 14.3609 109.078 16.6572 109.078 19.4796C109.078 22.3022 106.763 24.5984 103.918 24.5984C101.072 24.5984 98.7577 22.302 98.7577 19.4796C98.7577 16.6572 101.072 14.3609 103.918 14.3609ZM103.918 10.0952C98.693 10.0952 94.4577 14.2968 94.4577 19.4798C94.4577 24.6629 98.693 28.8644 103.918 28.8644C109.142 28.8644 113.378 24.6629 113.378 19.4798C113.378 14.2968 109.142 10.0952 103.918 10.0952Z" fill="white"/>
<path d="M103.918 37.5381C106.763 37.5381 109.078 39.8345 109.078 42.6569C109.078 45.4794 106.763 47.7757 103.918 47.7757C101.072 47.7757 98.7577 45.4792 98.7577 42.6569C98.7577 39.8345 101.072 37.5381 103.918 37.5381ZM103.918 33.2725C98.693 33.2725 94.4577 37.474 94.4577 42.6571C94.4577 47.8401 98.693 52.0416 103.918 52.0416C109.142 52.0416 113.378 47.8401 113.378 42.6571C113.378 37.474 109.142 33.2725 103.918 33.2725Z" fill="white"/>
<path d="M31.677 0C32.2223 0.254552 32.6537 0.648096 33.0776 1.06668C36.4949 4.44169 39.9225 7.80632 43.3471 11.1743C43.4657 11.2912 43.5906 11.4024 43.7005 11.5269C43.9376 11.7952 44.212 12.0789 44.0208 12.4652C43.8452 12.8201 43.4659 12.7827 43.135 12.7838C41.6786 12.7884 40.2225 12.7793 38.7663 12.7884C37.6246 12.7956 37.0954 13.3066 37.0904 14.437C37.0786 17.0183 37.0886 19.5997 37.0846 22.1811C37.0827 23.5545 36.575 24.0932 35.1974 24.1033C32.5716 24.1222 29.9455 24.1178 27.3195 24.1052C26.0658 24.0991 25.5326 23.5572 25.5297 22.3214C25.5236 19.74 25.5305 17.1585 25.5267 14.5773C25.5246 13.2782 25.0242 12.7902 23.6991 12.7868C22.1951 12.783 20.6913 12.7882 19.1872 12.7841C18.8324 12.7832 18.4118 12.8342 18.2434 12.4426C18.0665 12.0316 18.3669 11.7274 18.6423 11.457C22.3402 7.82437 26.0376 4.19161 29.7433 0.566881C29.9716 0.343634 30.2664 0.18747 30.5304 0C30.9124 0 31.2948 0 31.677 0Z" fill="white"/>
<path d="M30.6743 61C30.1973 60.6889 29.7811 60.3109 29.3788 59.9087C25.8811 56.4123 22.3757 52.9237 18.8741 49.4307C18.679 49.2359 18.3663 49.0643 18.5 48.7304C18.6352 48.3924 18.9893 48.3796 19.2973 48.3775C20.7775 48.3674 22.2575 48.3769 23.7377 48.3687C24.9874 48.3617 25.521 47.8394 25.5251 46.5935C25.5345 43.8226 25.5262 41.0517 25.5295 38.281C25.5308 36.9098 26.0468 36.4033 27.4411 36.402C29.9954 36.3993 32.5499 36.3976 35.1044 36.4028C36.5642 36.4056 37.0842 36.9262 37.0857 38.3744C37.0882 41.0269 37.084 43.6792 37.0874 46.3316C37.0897 47.9259 37.5327 48.3687 39.1112 48.3705C40.3766 48.372 41.6419 48.3674 42.9071 48.3746C43.2416 48.3766 43.6299 48.3741 43.7848 48.7231C43.9445 49.0832 43.5781 49.2633 43.3707 49.4703C39.8041 53.0323 36.2312 56.5882 32.6654 60.1512C32.3262 60.4897 31.96 60.781 31.5344 61C31.2477 61 30.961 61 30.6743 61Z" fill="white"/>
<path d="M0 30.0014C0.231714 29.5859 0.536638 29.2317 0.877805 28.8977C4.44457 25.4057 8.0034 21.9055 11.5705 18.4134C11.865 18.125 12.1465 17.6481 12.6257 17.8342C13.14 18.034 13.025 18.5867 13.0252 19.0254C13.0293 26.6247 13.0284 34.2243 13.0273 41.8235C13.0273 42.0126 13.0362 42.2053 13.0044 42.3902C12.909 42.9457 12.5751 43.1129 12.083 42.8361C11.8803 42.7217 11.7049 42.5503 11.5377 42.3843C7.86347 38.7308 4.19175 35.0747 0.521129 31.4174C0.340086 31.237 0.173469 31.0426 0 30.8546C0 30.5702 0 30.286 0 30.0014Z" fill="white"/>
<path d="M76.9628 13.7915H75.2816L75.2764 10.3789C75.2764 10.3789 77.9735 10.3469 79.0719 10.3721C80.2058 10.398 80.812 10.9522 80.848 12.0785C80.8987 13.6646 80.8647 17.6305 80.8647 17.6305H88.0009C88.0009 17.6305 87.9794 13.9639 87.9963 12.4475C88.0128 10.9572 88.5922 10.3859 90.0862 10.3653C91.0894 10.3515 93.594 10.3787 93.594 10.3787L93.5971 13.7663L91.9247 13.7913L91.9384 28.4368L87.9806 28.4412L88.0002 21.1853H80.8735L80.8971 28.4368H76.9376L76.9628 13.7915Z" fill="white"/>
<path d="M49.5922 30.3016C49.5922 26.606 49.5918 22.9106 49.5931 19.215C49.5931 18.9785 49.5709 18.734 49.6222 18.5071C49.7278 18.039 50.0017 17.9174 50.3898 18.2463C50.625 18.4458 50.8325 18.6773 51.0549 18.8921C54.5244 22.2503 57.9947 25.6077 61.4637 28.9667C61.8058 29.2978 62.1516 29.6251 62.2297 30.1327C62.3084 30.6446 62.1397 31.0413 61.7681 31.4052C58.047 35.0503 54.335 38.7047 50.6212 42.357C50.4344 42.5408 50.252 42.7791 49.955 42.6712C49.637 42.5557 49.6003 42.2449 49.5987 41.9569C49.5912 40.5593 49.5928 39.1616 49.5924 37.764C49.5918 35.2765 49.5922 32.7891 49.5922 30.3016Z" fill="white"/>
<path d="M170.853 48.2027C170.853 48.2027 167.61 39.2255 166.143 35.2304C165.532 33.5651 165.263 33.6993 164.69 33.6993C163.83 33.6993 162.827 33.6564 162.545 33.6564C161.814 33.6564 161.52 33.8488 161.281 34.5175C159.735 38.842 158.133 43.1464 156.571 47.4657C156.388 47.973 156.233 48.2027 156.233 48.2027H155.035L155.034 51.7574C155.034 51.7574 157.024 51.7719 157.741 51.7597C158.707 51.7435 159.35 51.2893 159.69 50.3768C160.02 49.4894 160.963 47.2073 160.963 47.2073H166.267C166.267 47.2073 167.182 49.5168 167.503 50.3764C167.84 51.2809 168.475 51.7443 169.436 51.7584C170.291 51.771 171.145 51.7588 172 51.7574C172 50.5725 172 48.2025 172 48.2025L170.853 48.2027ZM161.969 43.7943L163.543 38.9601L163.679 38.9718L165.263 43.7949L161.969 43.7943Z" fill="white"/>
<path d="M127.341 19.3217C126.867 18.9928 126.79 18.837 127.189 18.3536C129.536 15.5103 128.241 11.5764 124.671 10.6099C123.977 10.4223 123.409 10.3879 122.552 10.3879C121.259 10.3879 114.342 10.3786 114.342 10.3786L114.334 13.649H115.991C115.991 13.649 115.975 22.1183 115.981 25.9085C115.982 26.2854 116 26.6683 116.069 27.0376C116.243 27.9625 116.735 28.4202 117.679 28.4383C119.254 28.468 120.829 28.4385 122.405 28.4337C122.453 28.4337 122.502 28.4337 122.55 28.4337C124.194 28.5239 125.728 28.1798 127.074 27.2133C129.742 25.2985 129.889 21.0905 127.341 19.3217ZM119.969 13.7905C119.969 13.7905 121.687 13.7787 122.693 13.7728C123.547 13.7728 124.386 14.5021 124.386 15.6196C124.386 16.7244 123.839 17.5014 122.554 17.5014C122.119 17.5014 119.939 17.4882 119.939 17.4882L119.969 13.7905ZM125.014 23.0558C124.93 24.1349 124.358 24.6967 123.13 24.9054C122.078 24.895 121.026 24.8845 119.974 24.874C119.971 23.5002 119.969 22.1265 119.967 20.7527C121.115 20.645 122.263 20.6483 123.411 20.7428C124.646 21.1479 125.111 21.8189 125.014 23.0558Z" fill="white"/>
<path d="M147.113 25.3435C147.114 25.062 147.024 24.8632 146.706 24.9137C146.073 25.0143 145.915 24.6121 145.74 24.13C144.279 20.102 142.798 16.081 141.325 12.0572C140.672 10.2721 140.675 10.2712 138.748 10.3894C138.698 10.3894 138.649 10.3894 138.599 10.3894C138.314 10.3801 138.023 10.4002 137.743 10.356C136.983 10.2361 136.643 10.5424 136.382 11.2767C134.847 15.6039 133.24 19.9056 131.678 24.224C131.5 24.7183 131.268 24.9993 130.711 24.9099C130.28 24.8405 130.123 25.0172 130.14 25.4594C130.171 26.2873 130.168 27.1177 130.141 27.9459C130.128 28.3529 130.269 28.4846 130.672 28.4696C131.435 28.441 132.199 28.4654 132.963 28.4457C133.9 28.4219 134.526 27.9612 134.856 27.0853C135.189 26.1993 135.564 25.3281 135.879 24.436C136.023 24.0279 136.252 23.8992 136.671 23.9139C137.314 23.9366 137.959 23.9005 138.602 23.8895C138.65 23.8895 138.697 23.8895 138.745 23.8895C139.437 23.9005 140.129 23.9371 140.82 23.9133C141.222 23.8992 141.423 24.0492 141.56 24.4104C141.896 25.2957 142.277 26.1638 142.612 27.0492C142.905 27.8255 143.405 28.3626 144.261 28.4234C145.069 28.4812 145.883 28.4454 146.695 28.4646C147.004 28.4717 147.117 28.3422 147.114 28.0443C147.105 27.144 147.108 26.2437 147.113 25.3435ZM137.482 20.521C137.335 20.5225 137.199 20.4823 137.136 20.3271C137.679 18.7896 138.321 17.2831 138.619 15.6687C138.661 15.6622 138.702 15.6545 138.743 15.6454C139.182 17.2834 139.782 18.8698 140.323 20.4748C139.378 20.593 138.429 20.5122 137.482 20.521Z" fill="white"/>
<path d="M91.7439 48.2017C91.7646 44.5221 91.7547 39.8837 91.7537 36.2815C91.7529 34.1541 91.2514 33.6638 89.0798 33.6629C87.0027 33.6621 75.2497 33.6499 75.2497 33.6499V37.0625H76.9501C76.933 38.3713 76.8263 51.7563 76.8263 51.7563H80.6963L80.8702 37.1107H87.6664C87.6664 37.1107 87.6439 47.3468 87.6938 49.9509C87.7157 51.0853 88.243 51.639 89.2964 51.738L93.3096 51.7563V48.2017H91.7439Z" fill="white"/>
<path d="M139.035 33.6995C139.035 33.6995 136.455 33.6848 135.193 33.6848C134.192 33.6848 133.453 34.2681 133.453 36.1694C133.453 39.9598 133.462 48.2029 133.462 48.2029H128.501L128.428 33.6995H124.558V48.2208L119.541 48.221C119.541 48.221 119.547 35.9744 119.547 35.2165C119.547 34.2592 118.922 33.6936 117.977 33.6936C116.818 33.6936 113.951 33.6995 113.951 33.6995V37.112H115.671C115.671 37.112 115.656 45.6262 115.664 49.5113C115.667 51.2103 116.231 51.7624 117.953 51.7666C120.818 51.7736 123.684 51.7685 126.55 51.7683C129.487 51.7679 132.425 51.7748 135.362 51.7649C136.724 51.7601 137.257 51.2574 137.381 49.9076C137.407 49.6251 137.458 37.112 137.458 37.112H139.035V33.6995Z" fill="white"/>
<path d="M156.515 35.6596C156.499 34.2018 156.001 33.677 154.534 33.6714C150.427 33.656 146.321 33.6581 142.215 33.6713C140.929 33.6753 140.429 34.1482 140.367 35.4149C140.335 36.0743 140.322 38.6763 140.322 38.6763H144.048V36.97H146.485V51.7578H150.355V51.5633C150.41 51.4591 150.355 36.9698 150.355 36.9698H152.792V38.6761H156.518C156.518 38.6763 156.519 35.9542 156.515 35.6596Z" fill="white"/>
</g>
</svg>
