<svg width="205" height="185" viewBox="0 0 205 185" fill="none" xmlns="http://www.w3.org/2000/svg">
<path d="M112.488 0C68.8771 0 32.2419 30.3717 22.5794 71.0697C22.2715 71.0567 21.963 71.0462 21.652 71.0462C9.69403 71.0462 0 80.7402 0 92.6982C0 104.656 9.69403 114.349 21.652 114.349C22.0112 114.349 22.368 114.339 22.723 114.322C32.5883 154.737 69.0784 184.832 112.488 184.832C163.446 184.832 204.904 143.374 204.904 92.416C204.904 41.458 163.446 0 112.488 0ZM20.7493 105.544V84.5889L15.9023 88.8429V84.9029L20.7493 80.7189H24.3053V105.544H20.7493ZM26.6945 113.753C36.2194 111.48 43.304 102.919 43.304 92.6982C43.304 82.4288 36.1521 73.8355 26.559 71.6115C35.9409 32.8663 70.9003 4 112.488 4C161.24 4 200.904 43.663 200.904 92.416C200.904 108.277 196.703 123.174 189.359 136.058C186.897 133.952 182.152 128.542 179.582 116.715C179.231 115.1 178.908 113.563 178.599 112.098C175.547 97.582 173.865 89.586 161.432 84.598C157.013 82.8249 150.142 78.8173 143.075 74.3586C143.064 74.7571 142.888 49.2284 142.888 49.2284C142.888 44.3664 138.932 40.4094 134.068 40.4094H98.8859C96.0226 37.8701 93.1905 35.4117 90.7365 33.388C84.0845 27.902 71.2895 18.854 65.5335 19.703C64.0855 19.919 63.3075 20.679 62.9095 21.278C59.8759 25.8517 63.6846 42.9406 71.0843 53.4167C64.9456 49.6052 58.2579 46.3382 54.5937 47.021C53.1547 47.29 52.4057 48.078 52.0307 48.692C49.0347 53.594 54.0347 71.922 62.4997 81.891C63.9136 83.5559 65.7327 85.306 67.7797 87.0695C63.535 85.2065 59.5755 84.0543 57.1519 84.6659C55.7749 85.0149 55.0969 85.8259 54.7699 86.4439C52.2059 91.3049 58.0709 108.481 66.7389 117.469C69.3168 120.142 73.1218 122.993 77.226 125.698C74.52 125.137 72.0335 124.97 70.4807 125.655C69.3847 126.139 68.9327 126.918 68.7457 127.486C67.4377 131.47 73.9307 143.562 81.4987 149.144C83.0732 150.305 85.1074 151.454 87.3437 152.55C86.6318 152.648 86.0052 152.82 85.5033 153.091C84.5093 153.628 84.1403 154.397 84.0053 154.949C83.0863 158.728 89.6463 168.995 96.9903 173.567C102.022 176.7 111.671 179.348 117.238 180.704C115.665 180.787 114.082 180.832 112.488 180.832C71.0916 180.832 36.2671 152.229 26.6945 113.753ZM139.567 51.4207H85.4095V49.2284C85.4095 46.1974 87.8755 43.7314 90.9075 43.7314H134.068C137.099 43.7314 139.567 46.1974 139.567 49.2284V51.4207ZM90.9075 40.4094C86.0445 40.4094 82.0885 44.3664 82.0885 49.2284V60.5115C79.0498 57.9279 76.3486 55.3389 74.4965 52.986C66.2355 42.492 63.5435 25.75 65.4095 22.937C65.4465 22.882 65.5435 22.735 65.9755 22.671C69.3725 22.163 79.2045 27.767 88.8285 35.702C90.5248 37.101 92.4045 38.7092 94.351 40.4094H90.9075ZM78.4667 62.145C79.5994 63.0104 80.8279 63.9786 82.0885 64.9836V93.9968C75.5981 89.6397 68.5727 84.408 64.7867 79.949C56.1407 69.768 52.8297 53.137 54.5907 50.257C54.6257 50.2 54.7167 50.051 55.1457 49.971C58.5387 49.33 68.5547 54.571 78.4667 62.145ZM82.0885 98.6479V125.228C76.9526 122.047 71.9484 118.55 68.8979 115.387C60.2639 106.433 55.9709 90.5989 57.4239 87.8449C57.4489 87.7959 57.5169 87.6679 57.8889 87.5729C61.0009 86.7869 71.0389 91.2489 80.7449 97.7359C81.1757 98.0238 81.6335 98.3372 82.0885 98.6479ZM85.4095 132.486H139.567V135.603C139.567 138.634 137.099 141.1 134.068 141.1H90.9075C87.8755 141.1 85.4095 138.634 85.4095 135.603V132.486ZM139.567 128.801H85.4095V55.1057H139.567V128.801ZM123.263 180.174C123.251 179.489 122.77 178.878 122.071 178.732C121.904 178.698 105.303 175.209 98.5763 171.02C91.9453 166.892 86.6103 157.769 86.9053 155.737C87.814 155.062 92.4485 155.42 98.8113 157.276C101.189 158.127 103.333 158.836 104.952 159.352C112.435 162.159 122.836 166.676 122.95 166.725C123.709 167.053 124.593 166.708 124.923 165.947C125.254 165.187 124.906 164.305 124.146 163.973C124.049 163.931 116.472 160.642 109.553 157.912C109.367 157.674 109.11 157.489 108.798 157.398C108.753 157.385 107.627 157.053 105.853 156.486C105.186 156.236 104.539 155.998 103.927 155.78C103.494 155.625 102.032 155.115 100.091 154.539C94.3387 152.491 87.17 149.6 83.2787 146.73C75.9617 141.332 70.8987 130.546 71.5677 128.471C72.275 127.772 76.3465 128.254 82.0885 130.156V135.603C82.0885 140.465 86.0445 144.422 90.9075 144.422H134.068C138.932 144.422 142.888 140.465 142.888 135.603V77.7914C149.571 81.9609 155.996 85.6502 160.315 87.383C171.258 91.772 172.638 98.336 175.664 112.716C175.973 114.187 176.297 115.731 176.65 117.352C179.516 130.536 184.969 136.414 187.804 138.678C174.011 161.051 150.536 176.846 123.263 180.174Z" fill="#AA49FC"/>
<path d="M122.019 105.442H103.184C101.849 105.442 100.48 104.841 99.4277 103.793C98.7279 103.099 97.5398 101.478 97.5398 99.8232C97.5398 99.7622 97.5429 99.7012 97.549 99.641L99.8192 77.5559C99.9129 76.6447 100.68 75.9523 101.596 75.9523H104.595C104.807 72.9352 106.928 68.965 112.261 68.965C117.618 68.965 120.002 73.0373 120.365 75.9515H123.609C124.532 75.9515 125.303 76.6552 125.387 77.5743L127.429 99.886C127.434 99.9401 127.436 99.995 127.436 100.049C127.436 100.86 127.095 102.231 126.132 103.425C124.814 105.063 122.501 105.395 122.241 105.428C122.168 105.437 122.093 105.442 122.019 105.442ZM101.116 99.8695C101.16 100.151 101.507 100.825 101.946 101.26C102.324 101.637 102.798 101.87 103.184 101.87H121.889C122.359 101.789 123.088 101.51 123.351 101.184C123.739 100.703 123.837 100.219 123.859 100.074L121.979 79.5232H120.401V81.7938C120.401 82.7801 119.601 83.5797 118.615 83.5797C117.629 83.5797 116.829 82.7801 116.829 81.7938V79.5232H108.279L108.372 81.7189C108.414 82.7042 107.648 83.537 106.663 83.5779C105.669 83.6128 104.845 82.8542 104.804 81.8688L104.705 79.5232H103.208L101.116 99.8695ZM112.261 72.5367C108.941 72.5367 108.298 74.9182 108.175 75.9523L116.735 75.9515C116.469 74.8423 115.523 72.5367 112.261 72.5367Z" fill="#AA49FC"/>
</svg>
