<svg width="100" height="95" viewBox="0 0 100 95" fill="none" xmlns="http://www.w3.org/2000/svg">
<path d="M27.2205 15.1788H16.1242C15.3782 15.1788 14.773 14.5781 14.773 13.8371C14.773 13.0962 15.3782 12.4955 16.1242 12.4955H27.2205C27.9665 12.4955 28.5718 13.0962 28.5718 13.8371C28.5718 14.5781 27.9665 15.1788 27.2205 15.1788Z" fill="white"/>
<path d="M27.2205 11.408H16.1242C15.3782 11.408 14.773 10.8073 14.773 10.0663C14.773 9.32539 15.3782 8.72465 16.1242 8.72465H27.2205C27.9665 8.72465 28.5718 9.32539 28.5718 10.0663C28.5718 10.8073 27.9665 11.408 27.2205 11.408Z" fill="white"/>
<path d="M80.5383 48.0013C79.7923 48.0013 79.187 47.4006 79.187 46.6596V42.4333C79.187 41.6922 79.7923 41.0916 80.5383 41.0916C81.2843 41.0916 81.8896 41.6922 81.8896 42.4333V46.6596C81.8896 47.4006 81.2843 48.0013 80.5383 48.0013Z" fill="white"/>
<path d="M58.4162 36.6988H35.9044C35.1584 36.6988 34.5531 36.098 34.5531 35.3571C34.5531 34.6162 35.1584 34.0154 35.9044 34.0154H58.4162C59.1622 34.0154 59.7675 34.6162 59.7675 35.3571C59.7675 36.098 59.1622 36.6988 58.4162 36.6988Z" fill="white"/>
<path d="M47.1599 36.6988C40.5222 36.6988 35.1223 31.3372 35.1223 24.747C35.1223 18.1568 40.5222 12.7953 47.1599 12.7953C53.7976 12.7953 59.1974 18.1568 59.1974 24.747C59.1974 31.3372 53.7976 36.6988 47.1599 36.6988ZM47.1599 15.4786C42.0125 15.4786 37.8249 19.6364 37.8249 24.747C37.8249 29.8577 42.0125 34.0154 47.1599 34.0154C52.3073 34.0154 56.4949 29.8577 56.4949 24.747C56.4949 19.6364 52.3073 15.4786 47.1599 15.4786Z" fill="white"/>
<path d="M21.6719 23.9033C15.0351 23.9033 9.63525 18.5419 9.63525 11.9517C9.63525 5.36153 15.0351 0 21.6719 0C28.3096 0 33.7095 5.36153 33.7095 11.9517C33.7095 18.5419 28.3096 23.9033 21.6719 23.9033ZM21.6719 2.68333C16.5254 2.68333 12.3378 6.8411 12.3378 11.9517C12.3378 17.0622 16.5254 21.22 21.6719 21.22C26.8193 21.22 31.0069 17.0622 31.0069 11.9517C31.0069 6.8411 26.8193 2.68333 21.6719 2.68333Z" fill="white"/>
<path d="M72.7684 95C68.316 95 65.5949 91.0716 64.6712 83.3187C58.0406 84.7416 50.8786 84.7411 44.2479 83.3188C43.3251 91.0717 40.6049 95 36.1508 95C28.0017 95 27.6903 82.1152 27.6709 75.8847C20.3532 70.2987 16.3319 62.8552 16.3319 54.8589C16.3319 43.6561 24.3419 33.5558 37.2372 28.4993C37.9287 28.2275 38.717 28.5648 38.9906 29.2543C39.2642 29.9435 38.9237 30.7228 38.2296 30.995C26.39 35.6379 19.0344 44.7821 19.0344 54.8589C19.0344 62.1799 22.8666 69.0262 29.8236 74.1366C30.1676 74.3892 30.3708 74.7885 30.3717 75.2134C30.3779 79.4435 30.3963 92.3167 36.1508 92.3167C39.2413 92.3167 41.1116 88.6954 41.7099 81.5535C41.7433 81.1609 41.9483 80.8024 42.2711 80.5734C42.594 80.3444 43.0022 80.2679 43.3867 80.3636C50.5205 82.1457 58.3969 82.1462 65.5325 80.3636C65.9178 80.2677 66.326 80.3444 66.648 80.5733C66.9709 80.8023 67.1758 81.1607 67.2093 81.5533C67.8093 88.6953 69.6796 92.3167 72.7684 92.3167C78.5228 92.3167 78.5413 79.4435 78.5474 75.2134C78.5483 74.7885 78.7515 74.3891 79.0955 74.1366C82.7843 71.4272 85.7041 68.0846 87.5384 64.4701C87.768 64.0176 88.2352 63.7322 88.7454 63.7322H97.2974V51.2049H90.6598C90.0307 51.2049 89.4853 50.7741 89.3437 50.1659C87.7733 43.433 82.8951 37.4542 75.6073 33.331C75.1859 33.0924 74.9255 32.6474 74.9255 32.1654V19.0279C70.4353 19.6555 66.9497 23.369 66.7544 27.9952C66.7368 28.396 66.5407 28.7682 66.2178 29.0098C65.8949 29.2513 65.4806 29.3368 65.0882 29.2434C62.7208 28.6783 60.2619 28.303 57.7793 28.1277C57.035 28.0752 56.4746 27.4334 56.5274 26.6943C56.5802 25.9549 57.2444 25.4003 57.9711 25.4512C60.0825 25.6002 62.1789 25.8862 64.2234 26.3032C65.2219 20.554 70.24 16.251 76.2768 16.251C77.0228 16.251 77.6281 16.8517 77.6281 17.5927V31.3946C84.8376 35.6641 89.7906 41.693 91.7093 48.5215H98.6487C99.3947 48.5215 100 49.1222 100 49.8632V65.0739C100 65.8149 99.3947 66.4156 98.6487 66.4156H89.5627C87.6273 69.9373 84.7743 73.1877 81.2482 75.8844C81.2289 82.1143 80.9183 95 72.7684 95Z" fill="white"/>
<path d="M6.80599 67.2442C5.16175 67.2442 3.51838 66.6229 2.26651 65.3803C0.787654 63.9115 -0.0173125 61.9596 0.000282455 59.884C0.0169976 57.855 0.827243 55.9683 2.28234 54.5712C8.22414 48.8647 16.9292 52.4229 17.2969 52.5771C17.984 52.8656 18.306 53.6528 18.0157 54.3353C17.7263 55.0165 16.938 55.3377 16.2465 55.0495C16.1374 55.0046 8.79685 52.0479 4.16148 56.4999C3.23159 57.3928 2.71342 58.6026 2.70286 59.9065C2.69142 61.2569 3.21487 62.527 4.17731 63.483C5.62713 64.9216 7.98485 64.9219 9.43467 63.4828C9.94492 62.9759 10.2264 62.3018 10.2264 61.5849C10.2264 60.868 9.94492 60.1939 9.43467 59.6869C8.69656 58.9547 7.49747 58.9534 6.7576 59.6869C6.22976 60.2108 5.37464 60.2108 4.8468 59.6869C4.31895 59.1629 4.31895 58.3135 4.8468 57.7895C6.63796 56.0111 9.55431 56.0098 11.3455 57.7895C12.3669 58.8033 12.929 60.1512 12.929 61.5849C12.929 63.0186 12.3669 64.3665 11.3455 65.3803C10.0936 66.6229 8.45023 67.2442 6.80599 67.2442Z" fill="white"/>
<path d="M17.4134 18.5334C17.5485 18.1133 18.001 17.8895 18.4246 18.0219C19.051 18.2178 19.812 18.3498 20.4906 18.3498C22.5229 18.3498 23.7424 17.2796 23.7424 15.6975C23.7424 14.255 22.6971 13.3709 21.1584 12.4403C19.6196 11.5795 17.4711 10.1137 17.4711 8.0896C17.4711 5.71648 19.5325 3.97155 22.6391 3.97155C23.3836 3.97155 24.074 4.0843 24.6045 4.23566C25.0497 4.36265 25.2969 4.83254 25.1413 5.26567L25.1289 5.30026C24.984 5.7034 24.5451 5.91641 24.1339 5.78794C23.6908 5.64952 23.145 5.55363 22.5229 5.55363C20.6067 5.55363 19.7067 6.71692 19.7067 7.78713C19.7067 9.34597 20.7229 9.95086 22.581 11.0211C24.9327 12.3472 25.9779 13.7897 25.9779 15.5346C25.9779 18.2335 23.5972 19.9319 20.4906 19.9319C19.5776 19.9319 18.6239 19.7688 17.9356 19.5615C17.5082 19.4328 17.2688 18.9835 17.4046 18.561L17.4134 18.5334Z" fill="white"/>
<path d="M52.7084 27.9741H41.6113C40.8653 27.9741 40.26 27.3734 40.26 26.6324C40.26 25.8915 40.8653 25.2908 41.6113 25.2908H52.7084C53.4545 25.2908 54.0597 25.8915 54.0597 26.6324C54.0597 27.3734 53.4545 27.9741 52.7084 27.9741Z" fill="white"/>
<path d="M52.7084 24.2033H41.6113C40.8653 24.2033 40.26 23.6025 40.26 22.8616C40.26 22.1207 40.8653 21.5199 41.6113 21.5199H52.7084C53.4545 21.5199 54.0597 22.1207 54.0597 22.8616C54.0597 23.6025 53.4545 24.2033 52.7084 24.2033Z" fill="white"/>
<path d="M42.9012 31.3288C43.0363 30.9087 43.4888 30.6848 43.9124 30.8173C44.5388 31.0132 45.2998 31.1451 45.9784 31.1451C48.0107 31.1451 49.2302 30.0749 49.2302 28.4928C49.2302 27.0504 48.1849 26.1662 46.6462 25.2356C45.1074 24.3748 42.9589 22.909 42.9589 20.8849C42.9589 18.5118 45.0203 16.7669 48.1269 16.7669C48.8714 16.7669 49.5618 16.8796 50.0923 17.031C50.5375 17.158 50.7847 17.6279 50.6291 18.061L50.6167 18.0956C50.4718 18.4987 50.0329 18.7117 49.6217 18.5833C49.1786 18.4449 48.6328 18.349 48.0107 18.349C46.0945 18.349 45.1945 19.5123 45.1945 20.5825C45.1945 22.1413 46.2107 22.7462 48.0688 23.8164C50.4205 25.1426 51.4657 26.585 51.4657 28.33C51.4657 31.0288 49.085 32.7272 45.9784 32.7272C45.0654 32.7272 44.1117 32.5641 43.4234 32.3568C42.996 32.2281 42.7566 31.7788 42.8924 31.3563L42.9012 31.3288Z" fill="white"/>
</svg>
