<svg width="4" height="31" viewBox="0 0 4 31" fill="none" xmlns="http://www.w3.org/2000/svg">
<path d="M2 26.6535C3.10986 26.6535 4 27.458 4 28.4405C4 29.4239 3.10986 30.2275 2 30.2275C0.899901 30.2275 -1.28616e-06 29.4239 -1.24317e-06 28.4405C-1.20023e-06 27.458 0.899901 26.6535 2 26.6535ZM2 17.7638C3.10986 17.7638 4 18.5674 4 19.5595C4 20.542 3.10986 21.3465 2 21.3465C0.899901 21.3465 -8.9792e-07 20.542 -8.54973e-07 19.5595C-8.11606e-07 18.5674 0.899902 17.7638 2 17.7638ZM2 8.88188C3.10986 8.88188 4 9.68638 4 10.6689C4 11.661 3.10986 12.4559 2 12.4559C0.899902 12.4559 -5.09719e-07 11.661 -4.66352e-07 10.6689C-4.23405e-07 9.68638 0.899902 8.88188 2 8.88188ZM2 -8.74228e-08C3.10986 -3.89091e-08 4 0.795783 4 1.78702C4 2.77041 3.10986 3.57404 2 3.57404C0.899902 3.57404 -1.21098e-07 2.77041 -7.81131e-08 1.78702C-3.47848e-08 0.795782 0.899902 -1.3551e-07 2 -8.74228e-08Z" fill="#8B42EE"/>
</svg>
