<svg width="205" height="185" viewBox="0 0 205 185" fill="none" xmlns="http://www.w3.org/2000/svg">
<path d="M112.488 0C68.8779 0 32.2531 30.3736 22.5898 71.0701C22.2786 71.0568 21.9666 71.0463 21.652 71.0463C9.69397 71.0463 0 80.7403 0 92.6983C0 104.656 9.69397 114.349 21.652 114.349C22.0107 114.349 22.3671 114.339 22.7216 114.322C32.5869 154.737 69.0779 184.832 112.488 184.832C163.446 184.832 204.904 143.374 204.904 92.416C204.904 41.458 163.446 0 112.488 0ZM14.1556 104.733V101.56L23.7086 89.9504C24.6506 88.7994 25.0336 87.8934 25.0336 86.6374C25.0336 84.4064 23.7086 82.8724 21.4076 82.8724C19.5246 82.8724 17.7466 83.9184 17.7466 86.7084H14.1906C14.1906 82.4894 17.1886 79.6994 21.4076 79.6994C25.6616 79.6994 28.5906 82.3844 28.5906 86.6724C28.5906 88.8694 27.7876 90.1594 26.2546 92.0424L18.4786 101.56H28.5906V104.733H14.1556ZM112.488 180.832C71.0922 180.832 36.2698 152.228 26.697 113.752C36.2206 111.478 43.304 102.918 43.304 92.6983C43.304 82.4306 36.1545 73.8384 26.5638 71.6127C35.9462 32.8679 70.9011 4 112.488 4C161.241 4 200.904 43.663 200.904 92.416C200.904 141.169 161.241 180.832 112.488 180.832Z" fill="#AA49FC"/>
<path d="M178.185 58.5834C178.164 58.5694 176.093 57.1714 174.627 55.8104C173.005 54.306 171.81 53.7021 171.582 53.5947C171.21 52.7775 170.76 51.9939 170.261 51.2453C172.381 50.9719 174.239 50.3903 175.193 49.2688C176.878 47.2868 176.471 45.6568 176.078 44.8618C175.171 43.0278 172.805 42.2988 171.008 42.3858C169.327 42.4736 167.303 42.4991 166.236 42.5063C165.466 40.3276 163.984 37.4543 161.096 37.1509C157.587 36.7829 153.05 38.1289 150.99 40.1529C149.409 41.7044 149.125 46.2823 149.116 49.2489C144.622 53.3812 143.483 56.9507 142.181 61.0651C141.704 62.5751 141.209 64.1371 140.505 65.8501C139.581 68.0992 136.421 69.9442 132.513 71.726C132.217 67.3186 132.92 64.7235 133.552 62.4402C134.406 59.3632 135.144 56.7052 133.157 51.5932C132.066 48.7892 130.164 47.0102 127.286 44.3162C125.122 42.2922 122.427 39.7732 119 35.8402C112.219 28.0562 96.9435 7.18024 96.7895 6.97021C96.5225 6.60522 96.1055 6.38019 95.6545 6.35718C95.1935 6.34119 94.7645 6.51721 94.4625 6.85321C93.6365 7.77319 89.5765 12.5462 90.7485 16.1852C90.9285 16.7472 91.4695 17.7772 92.2425 19.0992L90.0725 15.9892C89.8165 15.6232 89.4115 15.3902 88.9675 15.3522C88.5195 15.3232 88.0855 15.4772 87.7725 15.7962C87.5905 15.9812 83.3285 20.3932 84.9925 25.3512C85.1065 25.6912 85.3065 26.1122 85.5775 26.5972C85.3855 26.5312 85.1795 26.5002 84.9715 26.5172C84.5315 26.5502 84.1285 26.7742 83.8685 27.1322C83.7828 27.2499 82.5384 28.996 81.9187 31.4232C74.1339 26.5294 66.9999 21.8656 66.8752 21.7838C66.4972 21.5348 66.0262 21.4728 65.5962 21.6108C65.1662 21.7478 64.8202 22.0738 64.6562 22.4938C64.2082 23.6468 62.0892 29.5438 64.4682 32.5368C64.8362 32.9998 65.7072 33.7748 66.9002 34.7418L63.7662 32.5918C63.3972 32.3398 62.9362 32.2638 62.5082 32.3858C62.0792 32.5078 61.7262 32.8148 61.5462 33.2218C61.4402 33.4598 59.0062 39.0898 62.3112 43.1438C62.5382 43.4218 62.8722 43.7438 63.2982 44.1038C63.0942 44.1088 62.8912 44.1548 62.7022 44.2418C62.3012 44.4278 62.0032 44.7808 61.8862 45.2048C61.8212 45.4398 60.3492 50.9708 63.5572 54.9218C64.3242 55.8668 66.1512 57.0878 68.4792 58.3938L66.1482 57.6958C65.6632 57.5508 65.1402 57.6578 64.7542 57.9838C64.3672 58.3078 64.1702 58.8048 64.2282 59.3058C64.2462 59.4638 64.7142 63.2218 67.9022 67.1758C69.2492 68.8468 73.6302 71.0338 78.4412 73.0708C77.9292 73.1488 77.4792 73.4908 77.2762 73.9918C77.2522 74.0528 74.9172 80.1158 83.2122 83.8058C86.0152 85.0518 89.9832 86.1868 93.8132 87.1128C93.5872 87.2948 93.4122 87.5438 93.3212 87.8368C93.0613 88.6776 92.9662 89.9672 93.3892 91.3068C89.4446 92.4958 85.908 93.0026 83.3398 92.5941C76.1528 91.4541 56.8338 78.4531 56.6398 78.3221C56.2748 78.0761 55.8188 78.0041 55.3938 78.1211C54.9698 78.2401 54.6198 78.5401 54.4358 78.9411L47.8048 93.4341C47.4778 94.1481 47.7578 94.9941 48.4468 95.3721L56.1968 99.6291L52.9228 105.072C52.6808 105.477 52.6418 105.972 52.8188 106.408C52.9958 106.846 53.3678 107.174 53.8228 107.295C61.1938 109.256 71.1948 112.209 76.9848 115.144C80.0578 116.703 82.8108 118.464 85.4728 120.167C91.5058 124.026 97.7438 128.018 107.676 129.545C108.21 129.627 108.749 129.696 109.29 129.76C109.508 130.011 109.805 130.196 110.159 130.257C110.229 130.269 116.307 131.335 119.829 132.495L110.137 132.482L110.118 146.769L112.174 146.772L112.144 170.429L150.544 170.479L150.575 146.823L152.858 146.826L152.877 132.539L145.785 132.529C145.624 132.07 145.425 131.607 145.175 131.166C144.02 129.124 139.22 128.1 136.139 127.643C135.859 127.521 135.551 127.488 135.253 127.545L133.083 127.333C140.108 125.112 146.447 121.65 150.968 117.256C161.468 107.048 162.626 100.321 163.195 91.2251C163.447 87.1961 162.483 83.6861 161.632 80.5881C160.594 76.8051 159.774 73.8161 161.176 70.8911C162.701 67.7111 163.467 67.4611 164.994 66.9641C166.158 66.5841 167.607 66.1121 169.581 64.5651C170.295 64.0057 170.852 63.3979 171.305 62.7625L177.685 61.2904C178.268 61.1554 178.714 60.6884 178.823 60.1004C178.931 59.5124 178.681 58.9174 178.185 58.5834ZM147.547 167.475L115.148 167.433L115.174 146.777L147.575 146.819L147.547 167.475ZM166.104 48.4248L166.151 48.4033C166.147 48.4103 166.143 48.4178 166.138 48.4248C166.126 48.4246 166.115 48.425 166.104 48.4248ZM167.621 45.4908C168.685 45.4748 169.992 45.4438 171.165 45.3818C172.221 45.3348 173.178 45.7648 173.388 46.1908C173.553 46.5258 173.062 47.1438 172.908 47.3248C172.299 48.0392 170.057 48.3837 167.271 48.4243C167.095 48.3169 166.912 48.2125 166.726 48.1096C167.587 47.5583 167.977 46.4786 167.621 45.4908ZM153.092 42.2939C154.244 41.1619 157.216 40.0889 159.863 40.0889C160.175 40.0889 160.483 40.1039 160.783 40.1359C161.843 40.2469 163.115 42.2739 164.051 44.4401L164.554 45.8328L159.657 48.0493C157.951 48.4215 153.723 48.9906 152.119 49.2009C152.148 45.9179 152.557 42.8759 153.092 42.2939ZM88.7875 19.3902L91.4645 23.2262C91.4965 23.2732 91.5315 23.3172 91.5695 23.3602L105.349 38.9982C105.875 39.5932 106.773 39.6782 107.398 39.1872C108.024 38.6982 108.161 37.8052 107.708 37.1522C102.602 29.7692 94.2585 17.3002 93.6035 15.2652C93.2425 14.1452 94.3225 12.0302 95.5315 10.3262C99.2675 15.4042 110.898 31.1092 116.738 37.8102C120.266 41.8592 123.021 44.4362 125.235 46.5082C127.906 49.0052 129.518 50.5122 130.36 52.6802C131.987 56.8632 131.461 58.7622 130.662 61.6382C129.969 64.1332 129.109 67.2372 129.555 72.5392C129.568 72.6956 129.594 72.8414 129.612 72.9943C128.956 73.272 128.291 73.5501 127.621 73.8301C127.088 74.0526 126.538 74.2849 125.991 74.5159C125.022 73.3035 124.116 71.9194 123.352 70.3138C121.297 65.9948 121.047 63.2048 120.826 60.7428C120.54 57.5628 120.294 54.8148 116.633 50.7318C114.624 48.4908 112.218 47.4958 108.575 45.9908C106.888 45.2941 104.944 44.4892 102.628 43.3975C96.4268 36.2524 88.645 26.8046 87.8365 24.3962C87.2105 22.5322 88.0075 20.6462 88.7875 19.3902ZM85.4135 30.4922L92.9995 38.2207C90.4393 36.707 87.5484 34.9371 84.6426 33.1276C84.7747 32.1343 85.0878 31.2151 85.4135 30.4922ZM149.873 135.534L149.862 143.821L113.122 143.773L113.133 135.487L120.879 135.497C120.864 137.356 120.866 138.616 120.884 138.871C120.94 139.66 121.597 140.258 122.377 140.258C122.407 140.258 122.437 140.257 122.467 140.256C123.286 140.208 123.915 139.504 123.878 138.684C123.877 138.664 123.857 138.182 123.879 135.501L124.202 135.501C124.209 135.516 124.223 135.539 124.229 135.551L125.01 140.3C125.132 141.036 125.768 141.557 126.489 141.557C126.57 141.557 126.652 141.551 126.734 141.537C127.551 141.403 128.105 140.631 127.971 139.814L127.262 135.505L128.031 135.506C128.394 136.632 128.459 137.657 128.459 137.669C128.497 138.472 129.16 139.098 129.956 139.098C129.979 139.098 130.004 139.097 130.028 139.096C130.855 139.057 131.494 138.355 131.455 137.527C131.453 137.464 131.407 136.618 131.145 135.51L135.831 135.516C135.813 135.933 135.787 136.293 135.765 136.512C135.682 137.336 136.282 138.071 137.107 138.154C137.157 138.159 137.208 138.162 137.259 138.162C138.02 138.162 138.671 137.586 138.749 136.813C138.761 136.692 138.808 136.193 138.836 135.52L139.5 135.521C139.64 136.75 139.705 137.684 139.706 137.7C139.76 138.492 140.419 139.098 141.201 139.098C141.235 139.098 141.269 139.097 141.305 139.094C142.132 139.038 142.755 138.323 142.698 137.496C142.695 137.436 142.639 136.632 142.52 135.525L143.4 135.526C143.44 135.888 143.449 136.133 143.449 136.138C143.466 136.958 144.133 137.611 144.948 137.611H144.977C145.805 137.595 146.464 136.912 146.449 136.084C146.449 136.055 146.444 135.85 146.416 135.53L149.873 135.534ZM138.673 132.189C138.788 132.298 138.887 132.409 138.962 132.52L138.726 132.52C138.71 132.408 138.693 132.298 138.673 132.189ZM142.106 132.524C142.096 132.47 142.087 132.415 142.078 132.361C142.073 132.338 142.065 132.318 142.06 132.296C142.215 132.375 142.346 132.452 142.439 132.525L142.106 132.524ZM125.159 129.573L134.755 130.499C135.07 130.983 135.491 131.73 135.677 132.516L129.929 132.508C128.551 130.45 124.009 129.971 121.617 129.864C121.553 129.827 121.487 129.795 121.42 129.768C122.457 129.657 123.491 129.519 124.521 129.353C124.71 129.469 124.924 129.55 125.159 129.573ZM164.064 64.1111C161.878 64.8231 160.411 65.5481 158.471 69.5941C156.584 73.5301 157.631 77.3441 158.74 81.3821C159.566 84.3941 160.421 87.5091 160.201 91.0371C159.66 99.6881 158.628 105.625 148.876 115.105C139.747 123.981 122.615 128.808 108.133 126.58C98.8268 125.148 93.1248 121.501 87.0898 117.64C84.3658 115.897 81.5488 114.095 78.3418 112.469C72.8198 109.669 63.7728 106.895 56.5188 104.915L59.5718 99.8391C59.7818 99.4891 59.8408 99.0681 59.7348 98.6751C59.6278 98.2801 59.3658 97.9471 59.0088 97.7511L51.1128 93.4141L56.4328 81.7871C61.2158 84.9311 76.1878 94.4971 82.8708 95.5571C86.2377 96.0887 90.5237 95.3798 95.0368 93.9294C95.7181 94.5833 96.611 95.1783 97.7802 95.6518C100.704 96.8358 105.782 97.0948 109.671 97.0948C112.557 97.0948 114.789 96.9518 114.999 96.9388C115.825 96.8838 116.451 96.1688 116.397 95.3428C116.341 94.5158 115.621 93.8938 114.801 93.9448C111.633 94.1558 102.606 94.3688 98.9062 92.8698C96.7402 91.9928 96.1912 90.6828 96.1052 89.7558L106.046 89.5718C106.822 89.5568 107.458 88.9528 107.515 88.1798C107.57 87.4068 107.028 86.7178 106.263 86.5908C106.113 86.5668 91.2402 84.0918 84.4312 81.0638C80.8202 79.4588 80.0182 77.5288 79.9242 76.3048L93.7752 78.7998C94.5482 78.9338 95.2982 78.4568 95.4942 77.6978C95.6902 76.9358 95.2652 76.1538 94.5212 75.9028C86.1672 73.0838 72.1882 67.7118 70.2382 65.2928C69.0862 63.8648 68.3622 62.4698 67.9122 61.3548L87.5292 67.2258C88.2972 67.4498 89.1072 67.0418 89.3732 66.2888C89.6402 65.5348 89.2692 64.7038 88.5292 64.4008C80.7482 61.2038 67.7202 55.2908 65.8862 53.0318C64.5812 51.4238 64.4222 49.2978 64.5162 47.8068L87.7332 58.5828C88.4712 58.9248 89.3492 58.6158 89.7092 57.8878C90.0702 57.1578 89.7832 56.2748 89.0632 55.8958C80.6112 51.4488 66.5062 43.5418 64.6362 41.2478C63.3942 39.7238 63.4742 37.6788 63.7622 36.2278L67.6192 38.8748C67.6662 38.9068 67.7142 38.9358 67.7642 38.9618L86.1712 48.7408C86.8712 49.1148 87.7432 48.8748 88.1552 48.1968C88.5682 47.5178 88.3812 46.6348 87.7282 46.1828C80.3482 41.0738 68.1462 32.3428 66.8172 30.6698C66.0842 29.7478 66.3492 27.3888 66.8802 25.3678C72.1652 28.8038 88.5852 39.4038 96.4112 43.6168C101.14 46.1638 104.627 47.6058 107.43 48.7638C110.808 50.1598 112.847 51.0028 114.399 52.7338C117.395 56.0748 117.571 58.0388 117.838 61.0118C118.069 63.5898 118.358 66.7978 120.643 71.6028C125.65 82.1288 135.681 84.7188 136.106 84.8238C136.912 85.0268 137.723 84.5328 137.922 83.7288C138.121 82.9248 137.631 82.1118 136.826 81.9118C136.763 81.8964 132.324 80.7392 128.159 76.8575C128.364 76.7713 128.571 76.6839 128.777 76.5981C135.614 73.7431 141.519 71.2771 143.281 66.9901C144.032 65.1611 144.545 63.5391 145.041 61.9701C146.173 58.3942 147.098 55.4965 150.348 52.2245L151.747 52.2739L151.868 52.2589C152.12 52.2262 157.864 51.4933 160.197 51.0014C161.526 51.175 163.9 51.4302 166.421 51.4499C166.879 51.7872 167.233 52.1155 167.443 52.4041C167.871 52.9937 168.429 53.8571 168.888 54.8565L166.113 57.6504C165.831 57.9344 165.674 58.3194 165.677 58.7184C165.68 59.1184 165.842 59.5014 166.128 59.7804L168.187 61.7947C168.043 61.9331 167.9 62.0718 167.731 62.2041C166.173 63.4241 165.101 63.7731 164.064 64.1111ZM170.507 59.8674L169.307 58.6924L171.151 56.8374C171.535 57.1064 172.026 57.4894 172.586 58.0094C172.987 58.3804 173.419 58.7504 173.847 59.0964L170.507 59.8674Z" fill="#AA49FC"/>
<path d="M160.664 53.6479C159.433 53.6479 158.432 54.6495 158.432 55.8799C158.432 57.111 159.433 58.1127 160.664 58.1127C161.895 58.1127 162.897 57.111 162.897 55.8799C162.897 54.6495 161.895 53.6479 160.664 53.6479Z" fill="#AA49FC"/>
</svg>
