<svg width="93" height="93" viewBox="0 0 93 93" fill="none" xmlns="http://www.w3.org/2000/svg">
<path d="M91.6834 90.2708H80.3968C84.5869 86.5363 84.2238 79.153 79.9497 75.6093C80.8542 75.6533 81.8848 75.3453 81.8848 74.2471C81.8848 72.1349 81.1773 70.396 79.7823 69.0791C78.9695 68.3118 78.0019 67.7767 77.0231 67.4031C77.3853 66.8071 77.5941 66.108 77.5941 65.3612C77.5941 63.1861 75.8239 61.4167 73.6478 61.4167C71.4718 61.4167 69.7015 63.1861 69.7015 65.3612C69.7015 65.7958 69.7733 66.2135 69.9036 66.605H67.6672C67.6854 62.2992 68.109 57.7344 67.0146 53.5306C65.0557 46.0052 58.9603 40.094 51.421 38.2398V34.9947C56.494 33.0262 60.1014 28.0978 60.1014 22.3399C60.1014 17.5256 57.4639 12.9952 53.301 10.5873C53.7517 9.61429 53.9865 8.55393 53.9865 7.46014C53.9867 3.34656 50.6387 0 46.5232 0C42.4077 0 39.0597 3.34656 39.0597 7.45997C39.0597 8.54648 39.2972 9.61048 39.7477 10.5857C35.6858 12.9342 32.9449 17.3216 32.9449 22.3398C32.9449 28.0034 36.4349 32.8655 41.3771 34.8965V38.2883C37.0728 39.3085 34.2814 41.414 34.1553 41.5104L34.1544 41.5111C33.1363 42.2286 32.172 43.0399 31.2888 43.9256C30.0769 45.1407 31.9667 47.1052 33.2195 45.8489C33.6283 45.4391 34.0573 45.0484 34.5018 44.6773C36.8365 48.6384 41.3575 51.2017 46.2658 51.2017C51.1522 51.2017 55.6682 48.5383 58.0015 44.4276C62.4179 47.9431 64.9976 53.2661 64.9734 58.969L64.9413 66.6048H63.2263C61.4722 66.6048 61.4693 69.3293 63.2263 69.3293H70.4424V73.3609C68.7114 73.4981 66.9917 73.7643 65.2918 74.1154C64.5313 74.2725 61.9703 74.8316 61.9491 74.8528C61.924 74.8779 58.6737 73.4334 58.8218 68.4044C58.8222 68.3911 58.8224 68.3777 58.8224 68.3642V56.0653C58.8224 54.3121 56.0964 54.3092 56.0964 56.0653V68.3446C55.9875 72.2166 57.4643 74.5637 58.8098 75.8901C55.3813 77.0488 51.2553 78.7788 46.6195 81.3602C41.8394 78.6933 37.5373 76.8975 33.8443 75.6916C35.1564 74.3456 36.5443 72.0259 36.4387 68.2676V55.9883C36.4387 54.2351 33.7127 54.2322 33.7127 55.9883V68.2872C33.7127 68.3007 33.7129 68.3139 33.7133 68.3274C33.8487 72.9212 31.1394 74.4981 30.6457 74.7466C27.157 73.8265 24.3905 73.4654 22.5003 73.3348V69.3293H29.7165C31.4707 69.3293 31.4827 66.6048 29.7165 66.6048H27.7336C27.726 66.0038 27.7145 65.4022 27.7031 64.8144C27.6119 60.1529 27.5255 55.7498 29.3172 51.5577C30.0064 49.9456 27.5003 48.8723 26.8104 50.4874C24.7887 55.2176 24.8846 60.1235 24.9775 64.8677C24.9888 65.4391 24.9998 66.0236 25.0073 66.6046H23.0388C23.1693 66.2134 23.2409 65.7954 23.2409 65.3608C23.2409 63.1858 21.4706 61.4163 19.2946 61.4163C17.1185 61.4163 15.3483 63.1858 15.3483 65.3608C15.3483 66.1077 15.5571 66.8066 15.9193 67.4025C14.9407 67.7761 13.9731 68.3112 13.1602 69.0786C11.7653 70.3954 11.0578 72.1344 11.0578 74.2466C11.0578 75.4266 12.1898 75.6506 13.1208 75.6088C8.97915 79.5124 8.24314 86.179 12.6218 90.2703H1.36298C0.610253 90.2703 0 90.8802 0 91.6325C0 92.3848 0.610253 92.9947 1.36298 92.9947C1.36298 92.9947 61.0617 92.9771 61.8724 92.9771C63.5101 92.9771 63.2301 90.2703 61.6508 90.2703C61.6508 90.2703 42.7541 90.1847 37.9822 90.2005C48.3187 82.5379 57.087 79.08 62.7694 77.5237C68.3882 75.985 72.1007 75.9584 73.0939 76.0017C77.1258 76.1773 80.4507 78.6297 80.6357 82.9382C80.7971 86.6936 77.8136 89.8965 74.121 90.2703H69.7786C68.0732 90.2703 67.9453 92.8344 69.6268 92.9889C69.8542 93.0098 91.6834 92.9947 91.6834 92.9947C93.4374 92.9953 93.4403 90.2708 91.6834 90.2708ZM41.7856 7.45997C41.7856 4.84883 43.9108 2.72447 46.5232 2.72447C49.1356 2.72447 51.2607 4.84883 51.2607 7.45997C51.2607 8.1627 51.1057 8.84254 50.8131 9.46572C49.4636 9.01528 48.0223 8.76753 46.5232 8.76753C45.0239 8.76753 43.5822 9.01527 42.2327 9.4659C41.9403 8.84164 41.7856 8.15852 41.7856 7.45997ZM46.5232 11.492C49.7585 11.492 52.6659 12.9164 54.6558 15.1686C52.0202 20.1073 48.1715 22.8618 43.2028 23.3565C39.2069 23.755 35.9186 22.4943 35.8761 22.4778C35.809 22.4515 35.7409 22.4324 35.6727 22.4171C35.6725 22.3912 35.6707 22.3657 35.6707 22.3398C35.6709 16.3583 40.5391 11.492 46.5232 11.492ZM36.1171 25.4124C37.3114 25.7439 39.2723 26.1595 41.6015 26.1595C42.1669 26.1595 42.7544 26.1349 43.3574 26.0788C47.2652 25.7147 52.5112 23.9227 56.3367 17.7136C57.0018 19.1178 57.3756 20.6856 57.3756 22.3398C57.3756 28.3212 52.5072 33.1873 46.5234 33.1873C41.6068 33.1873 37.4461 29.9016 36.1171 25.4124ZM46.266 48.4774C42.2305 48.4774 38.5325 46.3476 36.7248 43.0801C37.9011 42.3788 40.1346 41.246 42.9807 40.7365C43.6304 40.6202 44.1032 40.0554 44.1032 39.3957V35.6917C44.8892 35.8337 45.697 35.9118 46.5234 35.9118C47.2626 35.9118 47.9877 35.8502 48.6954 35.736V39.3359C48.6954 39.99 49.1604 40.5518 49.8034 40.6742C51.308 40.9606 53.4827 41.572 55.7493 42.8746C53.9324 46.2664 50.2554 48.4774 46.266 48.4774ZM78.994 72.8849H73.1682V69.3294C74.5232 69.4435 76.6028 69.8251 77.9107 71.0598C78.4433 71.5628 78.8024 72.166 78.994 72.8849ZM73.6482 64.1413C74.3211 64.1413 74.8685 64.6886 74.8685 65.3613C74.8685 66.0341 74.3211 66.5812 73.6482 66.5812C72.9752 66.5812 72.4279 66.0339 72.4279 65.3613C72.4279 64.6888 72.9752 64.1413 73.6482 64.1413ZM19.2948 64.1413C19.9677 64.1413 20.5151 64.6886 20.5151 65.3613C20.5151 66.0341 19.9677 66.5812 19.2948 66.5812C18.6218 66.5812 18.0744 66.0339 18.0744 65.3613C18.0744 64.6888 18.6218 64.1413 19.2948 64.1413ZM15.0261 71.0657C16.3424 69.818 18.4203 69.4375 19.7745 69.3262V72.8849H13.949C14.1396 72.1687 14.4967 71.5673 15.0261 71.0657ZM13.817 78.7748C14.902 77.375 17.0827 76.1036 19.9319 76.0102C20.8653 75.9795 30.2008 75.7056 43.8643 82.9625C43.4525 83.2119 43.0379 83.4662 42.6192 83.729C41.2148 83.6369 27.8092 82.9576 24.1708 90.2289C22.253 90.2221 20.3348 90.2078 18.4286 90.1809C13.0309 89.6502 10.6276 82.8902 13.817 78.7748ZM33.6866 90.2174C31.623 90.2258 29.5364 90.2327 27.4401 90.2336C29.2549 88.1977 32.4968 87.2561 35.1524 86.8216C36.329 86.6291 37.4793 86.5203 38.5081 86.4618C37.0552 87.4815 35.5704 88.58 34.0571 89.767C33.8967 89.8927 33.7736 90.0474 33.6866 90.2174Z" fill="white"/>
<path d="M16.3031 38.6872C15.8186 38.203 15.0332 38.203 14.5487 38.6872C14.0642 39.1711 14.0642 39.9564 14.5487 40.4406L16.3031 42.1946C16.5453 42.4367 16.8629 42.5579 17.1802 42.5579C17.4975 42.5579 17.8152 42.4367 18.0574 42.1946C18.5419 41.7107 18.5419 40.9254 18.0574 40.4412L16.3031 38.6872Z" fill="white"/>
<path d="M10.1626 32.5495C9.6781 32.0653 8.89274 32.0653 8.40825 32.5495C7.92376 33.0334 7.92376 33.8186 8.40825 34.3029L10.1626 36.0569C10.4048 36.299 10.7224 36.4202 11.0398 36.4202C11.3571 36.4202 11.6747 36.299 11.9169 36.0569C12.4014 35.573 12.4014 34.7877 11.9169 34.3035L10.1626 32.5495Z" fill="white"/>
<path d="M16.3031 32.5495L14.5487 34.3035C14.0642 34.7877 14.0642 35.5733 14.5487 36.0569C14.791 36.299 15.1086 36.4202 15.4259 36.4202C15.7432 36.4202 16.0608 36.299 16.3031 36.0569L18.0574 34.3029C18.5419 33.8187 18.5419 33.0331 18.0574 32.5495C17.5726 32.0653 16.7875 32.0653 16.3031 32.5495Z" fill="white"/>
<path d="M10.1626 38.6872L8.40825 40.4412C7.92376 40.9254 7.92376 41.711 8.40825 42.1946C8.6505 42.4367 8.96811 42.5579 9.28542 42.5579C9.60272 42.5579 9.92034 42.4367 10.1626 42.1946L11.9169 40.4406C12.4014 39.9564 12.4014 39.1708 11.9169 38.6872C11.4324 38.203 10.6471 38.203 10.1626 38.6872Z" fill="white"/>
<path d="M15.714 51.6016C15.0118 51.6016 14.4423 52.1704 14.4423 52.8723C14.4423 53.5741 15.0118 54.143 15.714 54.143C16.4163 54.143 16.9858 53.5741 16.9858 52.8723C16.9858 52.1704 16.4163 51.6016 15.714 51.6016Z" fill="white"/>
<path d="M69.0636 37.9615C68.3614 37.9615 67.7919 38.5304 67.7919 39.2322C67.7919 39.9341 68.3614 40.5029 69.0636 40.5029C69.7659 40.5029 70.3354 39.9341 70.3354 39.2322C70.3354 38.5304 69.7659 37.9615 69.0636 37.9615Z" fill="white"/>
<path d="M80.0201 45.8368C79.5842 45.401 79.0052 45.161 78.3901 45.161C77.8926 45.161 77.413 45.321 77.0169 45.6156C76.6206 45.321 76.141 45.161 75.6436 45.161C74.3721 45.161 73.3375 46.1949 73.3375 47.4658C73.3375 48.8307 75.8395 51.143 76.7051 51.6373C76.7997 51.6915 76.9074 51.7202 77.0167 51.7202C77.1261 51.7202 77.2338 51.6915 77.328 51.6375C78.194 51.143 80.6959 48.8307 80.6959 47.4658C80.6961 46.8511 80.456 46.2725 80.0201 45.8368ZM77.5304 46.8636C77.7275 46.583 78.049 46.4154 78.3901 46.4154C78.9696 46.4154 79.441 46.8866 79.441 47.4659C79.4411 47.9351 78.0447 49.5737 77.0169 50.3393C75.9889 49.5739 74.5925 47.9352 74.5925 47.4658C74.5925 46.8866 75.0641 46.4154 75.6436 46.4154C75.9847 46.4154 76.3061 46.583 76.5035 46.8638C76.6169 47.0251 76.8089 47.1213 77.0169 47.1213C77.2247 47.1213 77.4168 47.0251 77.5304 46.8636Z" fill="white"/>
<path d="M26.6941 26.7209C26.1966 26.7209 25.717 26.8809 25.3207 27.1755C24.9244 26.8809 24.4448 26.7209 23.9475 26.7209C22.6759 26.7209 21.6413 27.7548 21.6413 29.0257C21.6413 30.3905 24.1435 32.7029 25.0087 33.1971C25.1033 33.2514 25.211 33.2801 25.3207 33.2801C25.4299 33.2801 25.5376 33.2514 25.6318 33.1974C26.4978 32.7029 28.9999 30.3905 28.9999 29.0257C29.0001 28.411 28.7599 27.8324 28.3239 27.3966C27.888 26.9609 27.3092 26.7209 26.6941 26.7209ZM25.8342 28.4235C26.0315 28.1429 26.3529 27.9752 26.6939 27.9752C27.2734 27.9752 27.7449 28.4465 27.7449 29.0257C27.7449 29.4951 26.3485 31.1337 25.3207 31.8992C24.2929 31.1338 22.8965 29.4952 22.8965 29.0257C22.8965 28.4465 23.368 27.9752 23.9475 27.9752C24.2885 27.9752 24.6099 28.1428 24.8072 28.4236C24.9207 28.5849 25.1127 28.6812 25.3205 28.6812C25.5285 28.6812 25.7206 28.5849 25.8342 28.4235Z" fill="white"/>
</svg>
