<svg width="84" height="101" viewBox="0 0 84 101" fill="none" xmlns="http://www.w3.org/2000/svg">
<path d="M32.9284 61.5405H30.347V54.4351H23.098V61.5405H20.5279V45.7772H23.098V52.2248H30.347V45.7772H32.9284V61.5405Z" fill="white"/>
<path d="M50.8078 53.6373C50.8078 56.2035 50.1679 58.1982 48.8881 59.6214C47.6082 61.0445 45.7955 61.7561 43.4518 61.7561C41.0784 61.7561 39.2553 61.05 37.9824 59.6375C36.7096 58.225 36.074 56.2179 36.074 53.6157C36.074 51.0137 36.7139 49.0155 37.9938 47.6209C39.2736 46.2265 41.0993 45.5291 43.4727 45.5291C45.8103 45.5291 47.6169 46.2372 48.8933 47.6532C50.1696 49.0694 50.8078 51.0641 50.8078 53.6373ZM38.8052 53.6373C38.8052 55.5781 39.1961 57.0497 39.9779 58.0526C40.7589 59.0553 41.9169 59.5565 43.4518 59.5565C44.9789 59.5565 46.1307 59.0608 46.9091 58.0688C47.6866 57.0768 48.0757 55.5997 48.0757 53.6373C48.0757 51.7037 47.6901 50.2375 46.9195 49.2383C46.149 48.2391 44.9998 47.7394 43.4727 47.7394C41.9317 47.7394 40.7685 48.2391 39.9832 49.2383C39.1979 50.2375 38.8052 51.7037 38.8052 53.6373Z" fill="white"/>
<path d="M59.3958 61.5405H56.8257V47.9875H52.2008V45.7772H64.0206V47.9875H59.3958V61.5405Z" fill="white"/>
<path d="M24.0287 69.8165C24.0287 71.4627 23.4915 72.7242 22.4163 73.601C21.3402 74.4782 19.8096 74.9164 17.8237 74.9164H16.1886V80.8143H13.6185V65.051H18.1467C20.1109 65.051 21.5822 65.4536 22.5608 66.2586C23.5394 67.0635 24.0287 68.2495 24.0287 69.8165ZM16.1886 72.7493H17.5547C18.8737 72.7493 19.8418 72.5193 20.4582 72.0593C21.0747 71.5993 21.3837 70.8806 21.3837 69.903C21.3837 68.9971 21.1077 68.3216 20.5558 67.8757C20.0029 67.4301 19.1427 67.2074 17.9743 67.2074H16.1886V72.7493Z" fill="white"/>
<path d="M29.519 74.5175V80.8143H26.9489V65.051H31.3908C33.4194 65.051 34.9213 65.432 35.8964 66.1937C36.8715 66.9557 37.3591 68.106 37.3591 69.6441C37.3591 71.6063 36.3413 73.0046 34.3049 73.8382L38.7469 80.8143H35.8215L32.0578 74.5175H29.519ZM29.519 72.3827H31.3047C32.5018 72.3827 33.3698 72.1599 33.907 71.7141C34.445 71.2685 34.7141 70.6073 34.7141 69.7303C34.7141 68.8392 34.4233 68.1994 33.8426 67.8111C33.2618 67.423 32.3869 67.229 31.2185 67.229H29.519V72.3827Z" fill="white"/>
<path d="M40.8068 80.8143V65.051H43.3769V80.8143H40.8068Z" fill="white"/>
<path d="M53.997 67.0347C52.5204 67.0347 51.3589 67.5595 50.5127 68.6089C49.6664 69.6586 49.2441 71.1068 49.2441 72.9542C49.2441 74.8878 49.6507 76.3505 50.4648 77.3425C51.278 78.3345 52.4559 78.8303 53.997 78.8303C54.6639 78.8303 55.309 78.764 55.9333 78.6309C56.5566 78.498 57.2061 78.3273 57.88 78.1187V80.3292C56.6463 80.7964 55.2481 81.0299 53.6853 81.0299C51.3842 81.0299 49.6168 80.331 48.3831 78.9329C47.1503 77.5348 46.5338 75.5348 46.5338 72.9326C46.5338 71.2936 46.8325 69.8597 47.4315 68.6305C48.0305 67.4013 48.8959 66.4597 50.0286 65.8055C51.1613 65.1516 52.4916 64.8245 54.0187 64.8245C55.625 64.8245 57.1086 65.1625 58.4712 65.8381L57.5465 67.9835C57.0155 67.7322 56.4548 67.5111 55.8636 67.3206C55.2716 67.1301 54.6499 67.0347 53.997 67.0347Z" fill="white"/>
<path d="M69.9418 80.8143H61.0474V65.051H69.9418V67.229H63.6175V71.5201H69.5439V73.6765H63.6175V78.6256H69.9418V80.8143Z" fill="white"/>
<path d="M41.9996 101C18.8406 101 0 82.1109 0 58.893C0 39.6421 15.6219 23.9802 34.8238 23.9802C35.3644 23.9802 35.852 24.3069 36.0592 24.8079C36.2664 25.3089 36.1515 25.8854 35.7693 26.2691C32.9371 29.108 31.3778 32.8831 31.3778 36.8994V37.5856C31.3778 39.4909 32.924 41.0411 34.8238 41.0411C36.7244 41.0411 38.2706 39.4909 38.2706 37.5856V30.1168C38.2706 13.5103 51.7464 0 68.3111 0C68.8518 0 69.3393 0.326667 69.5465 0.827686C69.7538 1.32871 69.6388 1.90523 69.2566 2.28885L63.0716 8.4894C61.1432 10.4226 60.081 12.9936 60.081 15.7287C60.081 18.4638 61.1432 21.035 63.0716 22.9681L73.4601 33.3828C80.2571 40.197 84 49.2568 84 58.893C84 82.1109 65.1585 101 41.9996 101ZM31.8505 26.7982C15.5113 28.3067 2.6746 42.1249 2.6746 58.893C2.6746 80.6323 20.3155 98.3186 41.9996 98.3186C63.6837 98.3186 81.3254 80.6323 81.3254 58.893C81.3254 49.973 77.8603 41.5868 71.569 35.2789L61.1806 24.8644C58.7472 22.4246 57.4064 19.1802 57.4064 15.7287C57.4064 12.2774 58.7472 9.03298 61.1806 6.59312L64.8669 2.89767C51.3964 4.60039 40.9452 16.1579 40.9452 30.1168V37.5856C40.9452 40.9695 38.1992 43.7225 34.8238 43.7225C31.4492 43.7225 28.7032 40.9695 28.7032 37.5856V36.8994C28.7032 33.2353 29.8045 29.7417 31.8505 26.7982Z" fill="white"/>
<path d="M18.0805 21.8655C13.3861 21.8655 9.56744 18.0367 9.56744 13.3307C9.56744 5.98016 15.5322 0 22.8647 0H25.2563C25.9946 0 26.5936 0.600307 26.5936 1.34071V13.3307C26.5936 18.0367 22.775 21.8655 18.0805 21.8655ZM22.8647 2.68142C17.007 2.68142 12.242 7.45878 12.242 13.3307C12.242 16.5583 14.8609 19.1841 18.0805 19.1841C21.3002 19.1841 23.919 16.5583 23.919 13.3307V2.68142H22.8647Z" fill="white"/>
</svg>
