<svg width="87" height="96" viewBox="0 0 87 96" fill="none" xmlns="http://www.w3.org/2000/svg">
<path d="M33.3151 64.1268H1.35751C0.818509 64.1268 0.330756 63.8106 0.114272 63.3209C-0.102213 62.8313 -0.00589955 62.261 0.359032 61.8675L10.5435 50.8838C10.8007 50.6067 11.1629 50.4491 11.542 50.4491H43.5004C44.0394 50.4491 44.5272 50.7652 44.7437 51.255C44.9602 51.7446 44.8639 52.3148 44.4989 52.7084L34.3135 63.692C34.0564 63.9692 33.6941 64.1268 33.3151 64.1268ZM4.45103 61.4327H32.7195L40.4069 53.1431H12.1376L4.45103 61.4327Z" fill="white"/>
<path d="M85.6425 64.1268H53.6849C53.305 64.1268 52.9436 63.9692 52.6865 63.692L42.502 52.7084C42.137 52.3148 42.0407 51.7446 42.2572 51.255C42.4737 50.7652 42.9614 50.4491 43.5004 50.4491H75.458C75.8371 50.4491 76.1993 50.6067 76.4565 50.8838L86.641 61.8675C87.0059 62.261 87.1022 62.8313 86.8857 63.3209C86.6693 63.8106 86.1815 64.1268 85.6425 64.1268ZM54.2805 61.4327H82.549L74.8624 53.1431H46.594L54.2805 61.4327Z" fill="white"/>
<path d="M75.0082 96H11.9918C11.2425 96 10.6345 95.3969 10.6345 94.653V63.2286C10.6345 62.4847 11.2425 61.8815 11.9918 61.8815C12.7411 61.8815 13.349 62.4847 13.349 63.2286V93.3059H73.651V63.1071C73.651 62.3632 74.2589 61.7601 75.0082 61.7601C75.7575 61.7601 76.3655 62.3632 76.3655 63.1071V94.653C76.3655 95.3969 75.7575 96 75.0082 96Z" fill="white"/>
<path d="M43.7028 36.321C43.3555 36.321 43.0083 36.1895 42.7432 35.9264L25.7319 19.0424C21.3501 14.6933 21.3501 7.61652 25.7319 3.26739C27.8552 1.16046 30.6775 0 33.6791 0C36.6816 0 39.5039 1.16046 41.6263 3.26739L43.7028 5.32828L45.7802 3.26717C47.9026 1.16046 50.7248 0 53.7265 0C53.7256 0 53.7274 0 53.7265 0C56.7281 0 59.5512 1.16046 61.6745 3.26717C66.0564 7.61631 66.0564 14.6931 61.6745 19.0424L44.6624 35.9266C44.3973 36.1895 44.0501 36.321 43.7028 36.321ZM33.6791 2.69407C31.402 2.69407 29.2619 3.57433 27.6511 5.1724C24.3279 8.47114 24.3279 13.8387 27.6511 17.1376L43.7028 33.069L59.7553 17.1376C63.0786 13.8387 63.0786 8.47092 59.7553 5.17218C58.1445 3.57433 56.0044 2.69407 53.7274 2.69407C51.4503 2.69407 49.3093 3.57411 47.6994 5.17218L44.6624 8.18568C44.1322 8.71143 43.2734 8.71165 42.7432 8.18546L39.7071 5.17218C38.0972 3.57411 35.9562 2.69407 33.6791 2.69407Z" fill="white"/>
<path d="M43.7028 48.512C42.9535 48.512 42.3456 47.9089 42.3456 47.165V44.476C42.3456 43.7321 42.9535 43.129 43.7028 43.129C44.4521 43.129 45.06 43.7321 45.06 44.476V47.165C45.06 47.9089 44.4521 48.512 43.7028 48.512Z" fill="white"/>
<path d="M51.5501 48.5109C50.8212 48.5109 50.2185 47.9376 50.1947 47.2091C50.1841 46.8817 49.9844 39.1126 54.7426 32.4656C55.1765 31.8585 56.0256 31.7173 56.6353 32.1475C57.2459 32.5785 57.389 33.4193 56.9552 34.0257C52.7412 39.9124 52.9056 47.0514 52.9074 47.1229C52.9303 47.8657 52.3419 48.487 51.5934 48.5103C51.5793 48.5107 51.5643 48.5109 51.5501 48.5109Z" fill="white"/>
<path d="M63.85 33.7107C63.6733 33.7107 63.4939 33.676 63.3207 33.6033C62.6306 33.313 62.309 32.5222 62.6015 31.8372C63.0972 30.6785 63.8473 28.9274 65.2797 29.3828C65.9936 29.6097 66.3868 30.3679 66.1589 31.0765C66.0661 31.3643 65.885 31.5998 65.6543 31.7627C65.5669 31.9 65.3857 32.2211 65.1003 32.8892C64.8812 33.4024 64.3784 33.7107 63.85 33.7107ZM64.4553 31.9497C64.503 31.9646 64.5489 31.9765 64.5949 31.9857C64.548 31.9762 64.5021 31.9644 64.4553 31.9497Z" fill="white"/>
<path d="M59.4894 48.512C58.7401 48.512 58.1322 47.9089 58.1322 47.165C58.1322 46.611 58.1746 41.6743 59.6396 38.9622C59.9939 38.3065 60.8192 38.0611 61.4775 38.4117C62.1384 38.7634 62.3867 39.5798 62.0324 40.2356C61.0596 42.0354 60.8466 45.8478 60.8466 47.165C60.8466 47.9089 60.2387 48.512 59.4894 48.512Z" fill="white"/>
<path d="M35.8537 48.5114C35.1494 48.5114 34.5539 47.9699 34.5018 47.2613C34.4965 47.1933 33.9583 40.402 29.9741 34.4392C29.5597 33.8192 29.7303 32.9832 30.355 32.5722C30.977 32.1615 31.8209 32.3297 32.2362 32.9501C36.6286 39.5237 37.1879 46.7653 37.2091 47.0703C37.2622 47.8118 36.6993 48.4548 35.9526 48.5079C35.9191 48.5103 35.8864 48.5114 35.8537 48.5114Z" fill="white"/>
<path d="M27.918 48.5123C27.8119 48.5123 27.7041 48.5 27.5972 48.4739C26.8718 48.2994 26.4256 47.5772 26.5952 46.8578C26.6208 46.7447 27.0556 44.6356 25.5366 42.0152C25.1638 41.3702 25.3873 40.5469 26.0368 40.176C26.6871 39.8059 27.5159 40.0267 27.8906 40.6721C29.9839 44.2857 29.2672 47.354 29.2363 47.4829C29.0852 48.099 28.5294 48.5123 27.918 48.5123Z" fill="white"/>
<path d="M43.5004 96C42.7511 96 42.1432 95.3969 42.1432 94.653V52.2451C42.1432 51.5012 42.7511 50.8981 43.5004 50.8981C44.2497 50.8981 44.8577 51.5012 44.8577 52.2451V94.653C44.8577 95.3969 44.2497 96 43.5004 96Z" fill="white"/>
</svg>
