<svg width="113" height="90" viewBox="0 0 113 90" fill="none" xmlns="http://www.w3.org/2000/svg">
<path d="M78.7428 65.9418V64.7641C78.7428 63.0627 79.0047 61.6633 79.5284 60.5652C80.0521 59.4676 81.0269 58.3078 82.4527 57.0863C84.4312 55.4142 85.6792 54.1562 86.1959 53.3128C86.7118 52.4694 86.9701 51.4515 86.9701 50.2591C86.9701 48.7758 86.4937 47.6307 85.5408 46.8237C84.5879 46.0166 83.2164 45.6131 81.4271 45.6131C80.2772 45.6131 79.1571 45.7477 78.0658 46.0166C76.9746 46.2858 75.723 46.7766 74.3121 47.4889L73.0247 44.5444C75.7747 43.1047 78.6473 42.385 81.6452 42.385C84.4241 42.385 86.5848 43.0686 88.1271 44.4352C89.6693 45.8022 90.4401 47.7288 90.4401 50.2155C90.4401 51.2771 90.2982 52.2112 90.0144 53.0183C89.7307 53.8253 89.3129 54.5888 88.7603 55.3085C88.2067 56.0282 87.0139 57.188 85.1808 58.7875C83.7113 60.0383 82.74 61.0777 82.267 61.9066C81.7941 62.7355 81.5576 63.8409 81.5576 65.2221V65.9418H78.7428ZM77.6734 72.42C77.6734 70.4427 78.5458 69.4536 80.2921 69.4536C81.1355 69.4536 81.7871 69.7083 82.2451 70.2171C82.7032 70.7263 82.9327 71.4604 82.9327 72.42C82.9327 73.3509 82.6997 74.0743 82.2346 74.5903C81.7687 75.1063 81.1215 75.3648 80.2921 75.3648C79.5354 75.3648 78.9092 75.1357 78.4153 74.6777C77.9204 74.2197 77.6734 73.4671 77.6734 72.42Z" fill="white"/>
<path d="M19.7828 88.7439C19.5489 88.7439 19.3168 88.6829 19.1101 88.5638C18.801 88.3855 18.5759 88.0918 18.4831 87.7474L9.5849 54.556C9.39309 53.8389 9.81874 53.1016 10.536 52.9093L54.5522 41.1217C55.2721 40.9311 56.0078 41.3549 56.2005 42.0725C56.3923 42.7896 55.9666 43.5268 55.2493 43.7192L12.532 55.1586L20.7339 85.7528L56.6725 76.1285C57.3951 75.9381 58.129 76.3618 58.3208 77.0793C58.5126 77.7964 58.087 78.5336 57.3697 78.726L20.1313 88.6982C20.0166 88.7288 19.8992 88.7439 19.7828 88.7439Z" fill="white"/>
<path d="M10.8837 55.553C10.2899 55.553 9.74604 55.1567 9.5849 54.556L6.32165 42.3858C6.22969 42.0414 6.27786 41.6744 6.45652 41.3657C6.63431 41.0569 6.92858 40.8315 7.27277 40.7392L64.56 25.3976C65.2791 25.207 66.0156 25.6306 66.2083 26.3482L67.529 31.272C67.7208 31.9893 67.2952 32.7266 66.5779 32.9187C65.8667 33.1113 65.1223 32.6859 64.9296 31.9683L63.9575 28.343L9.26873 42.9885L11.8357 52.5614L54.5522 41.1217C55.2721 40.9311 56.0078 41.3549 56.2005 42.0725C56.3923 42.7896 55.9666 43.5268 55.2493 43.7192L11.2332 55.5068C11.1158 55.5379 10.9993 55.553 10.8837 55.553Z" fill="white"/>
<path d="M12.4969 54.3796C12.2684 54.3796 12.0371 54.3216 11.8252 54.1993C11.1815 53.8279 10.9617 53.0058 11.333 52.3627L19.7407 37.8082C20.1121 37.1644 20.9353 36.9453 21.5782 37.316C22.2219 37.6874 22.4417 38.5095 22.0704 39.1527L13.6626 53.7071C13.4139 54.1384 12.9611 54.3796 12.4969 54.3796Z" fill="white"/>
<path d="M21.2147 52.0449C20.9861 52.0449 20.7549 51.9869 20.543 51.8646C19.8992 51.4933 19.6794 50.6711 20.0508 50.028L28.4585 35.4735C28.8298 34.8299 29.6531 34.6107 30.2959 34.9814C30.9396 35.3527 31.1595 36.1748 30.7881 36.818L22.3804 51.3725C22.1317 51.8038 21.6789 52.0449 21.2147 52.0449Z" fill="white"/>
<path d="M29.9325 49.7102C29.7039 49.7102 29.4727 49.6523 29.2607 49.5299C28.617 49.1586 28.3972 48.3364 28.7685 47.6933L37.1762 33.139C37.5467 32.4955 38.3717 32.2762 39.0137 32.6469C39.6574 33.0183 39.8772 33.8404 39.5059 34.4835L31.0982 49.0378C30.8494 49.4691 30.3966 49.7102 29.9325 49.7102Z" fill="white"/>
<path d="M38.6502 47.3758C38.4216 47.3758 38.1904 47.3178 37.9785 47.1955C37.3348 46.8241 37.1149 46.002 37.4863 45.3588L45.894 30.8044C46.2653 30.1606 47.0895 29.9413 47.7314 30.3122C48.3752 30.6836 48.595 31.5057 48.2236 32.1488L39.8159 46.7033C39.5672 47.1346 39.1144 47.3758 38.6502 47.3758Z" fill="white"/>
<path d="M47.3671 45.0411C47.1385 45.0411 46.9073 44.9831 46.6954 44.8608C46.0516 44.4894 45.8318 43.6673 46.2032 43.0242L54.6109 28.4699C54.9822 27.8261 55.8055 27.6069 56.4483 27.9778C57.092 28.3491 57.3119 29.1713 56.9405 29.8144L48.5328 44.3686C48.2841 44.8 47.8313 45.0411 47.3671 45.0411Z" fill="white"/>
<path d="M7.64849 43.2382C7.53201 43.2382 7.41465 43.2231 7.29992 43.1924C6.95573 43.1001 6.66146 42.8747 6.48367 42.5659L0.180505 31.6545C-0.190836 31.0114 0.028991 30.1892 0.672707 29.8179L52.0351 0.18025C52.3443 0.00168597 52.7104 -0.0464562 53.0563 0.0458893C53.4005 0.138235 53.6948 0.363628 53.8726 0.672394L60.1758 11.584C60.5471 12.2272 60.3273 13.0493 59.6835 13.4207L8.32111 43.0581C8.11442 43.1771 7.88233 43.2382 7.64849 43.2382ZM3.18276 31.4744L8.14069 40.0571L57.1735 11.7641L52.2156 3.18126L3.18276 31.4744Z" fill="white"/>
<path d="M8.90352 41.688C8.78791 41.688 8.67143 41.6729 8.55407 41.6418C7.83679 41.4495 7.41115 40.7122 7.60295 39.9951L11.9557 23.7618C12.1484 23.0443 12.8858 22.6209 13.604 22.811C14.3212 23.0034 14.7469 23.7406 14.5551 24.4577L10.2023 40.691C10.0412 41.2917 9.49732 41.688 8.90352 41.688Z" fill="white"/>
<path d="M16.7201 37.178C16.6045 37.178 16.488 37.1629 16.3706 37.1318C15.6533 36.9394 15.2277 36.2024 15.4195 35.4851L19.7714 19.2518C19.9641 18.5342 20.7006 18.111 21.4196 18.301C22.1369 18.4931 22.5626 19.2303 22.3708 19.9476L18.0189 36.181C17.8577 36.7817 17.3139 37.178 16.7201 37.178Z" fill="white"/>
<path d="M24.5358 32.6679C24.4201 32.6679 24.3037 32.6528 24.1863 32.6217C23.469 32.4294 23.0434 31.6922 23.2352 30.9751L27.5879 14.7417C27.7806 14.0242 28.5198 13.6005 29.2362 13.7909C29.9535 13.9833 30.3791 14.7205 30.1873 15.4376L25.8346 31.6709C25.6734 32.2716 25.1296 32.6679 24.5358 32.6679Z" fill="white"/>
<path d="M32.3523 28.1579C32.2367 28.1579 32.1202 28.1428 32.0029 28.1117C31.2856 27.9193 30.8599 27.1823 31.0517 26.465L35.4036 10.2317C35.5963 9.51414 36.3337 9.09071 37.0519 9.28087C37.7692 9.473 38.1948 10.2102 38.003 10.9276L33.6511 27.1609C33.49 27.7616 32.9461 28.1579 32.3523 28.1579Z" fill="white"/>
<path d="M40.168 23.6478C40.0524 23.6478 39.9359 23.6327 39.8185 23.6016C39.1013 23.4093 38.6756 22.6723 38.8674 21.955L43.2193 5.72163C43.412 5.0041 44.1485 4.58088 44.8676 4.77083C45.5848 4.96296 46.0105 5.70019 45.8187 6.41751L41.4668 22.6508C41.3057 23.2515 40.7618 23.6478 40.168 23.6478Z" fill="white"/>
<path d="M47.9837 19.1378C47.8681 19.1378 47.7516 19.1227 47.6342 19.0916C46.9169 18.8992 46.4913 18.162 46.6831 17.4449L51.0359 1.21159C51.2285 0.494049 51.9677 0.070398 52.6841 0.260778C53.4014 0.453128 53.827 1.19036 53.6352 1.90746L49.2825 18.1408C49.1213 18.7415 48.5775 19.1378 47.9837 19.1378Z" fill="white"/>
<path d="M111.655 90C111.447 90 111.239 89.9523 111.045 89.854L99.6693 84.073C94.2489 87.9537 87.8713 90 81.1679 90C63.6159 90 49.3359 75.7282 49.3359 58.1859C49.3359 40.6438 63.6159 26.372 81.1679 26.372C98.7199 26.372 113 40.6438 113 58.1859C113 64.8855 110.952 71.2602 107.069 76.6771L112.854 88.0461C113.118 88.5649 113.017 89.1947 112.606 89.6061C112.347 89.8645 112.003 90 111.655 90ZM81.1679 29.061C65.0995 29.061 52.0264 42.1263 52.0264 58.1859C52.0264 74.2455 65.0995 87.311 81.1679 87.311C87.5639 87.311 93.6359 85.2764 98.7278 81.4268C99.1385 81.1158 99.6903 81.0677 100.149 81.3005L108.584 85.5869L104.295 77.1572C104.061 76.6985 104.11 76.1471 104.421 75.7366C108.273 70.6473 110.309 64.5783 110.309 58.1859C110.309 42.1263 97.2363 29.061 81.1679 29.061Z" fill="white"/>
</svg>
