<svg width="107" height="96" viewBox="0 0 107 96" fill="none" xmlns="http://www.w3.org/2000/svg">
<path d="M88.2691 96H21.2361C16.0678 96 11.8637 91.7484 11.8637 86.5222V32.8196C11.8637 32.0711 12.464 31.4643 13.204 31.4643H96.3021C97.042 31.4643 97.6424 32.0711 97.6424 32.8196V86.5222C97.6424 91.7484 93.4374 96 88.2691 96ZM14.5443 34.1749V86.5222C14.5443 90.2537 17.546 93.2894 21.2361 93.2894H88.2691C91.9592 93.2894 94.9618 90.2537 94.9618 86.5222V34.1749H14.5443Z" fill="white"/>
<path d="M39.5002 34.2313H30.3442C29.6042 34.2313 29.0039 33.6245 29.0039 32.876V11.5615C29.0039 11.2154 29.1348 10.8825 29.3695 10.631L38.5255 0.827206C38.9034 0.423088 39.4863 0.293603 39.995 0.498309C40.5054 0.703456 40.8405 1.20243 40.8405 1.75765V32.876C40.8405 33.6245 40.2402 34.2313 39.5002 34.2313ZM31.6845 31.5207H38.1599V5.16662L31.6845 12.1004V31.5207Z" fill="white"/>
<path d="M79.1619 34.2313H70.005C69.265 34.2313 68.6647 33.6245 68.6647 32.876V1.75765C68.6647 1.20243 68.9997 0.703456 69.5102 0.498309C70.0207 0.293823 70.6027 0.423088 70.9796 0.826985L80.1366 10.6308C80.3713 10.8825 80.5022 11.2154 80.5022 11.5615V32.876C80.5022 33.6245 79.9018 34.2313 79.1619 34.2313ZM71.3453 31.5207H77.8216V12.1004L71.3453 5.1664V31.5207Z" fill="white"/>
<path d="M70.005 12.3721H39.5002C39.1416 12.3721 38.7978 12.2265 38.5456 11.968C38.2934 11.7095 38.1547 11.3596 38.1599 10.9968L38.2952 1.73757C38.3065 0.997059 38.9034 0.402353 39.6355 0.402353H70.005C70.7449 0.402353 71.3453 1.00919 71.3453 1.75765V11.0168C71.3453 11.7653 70.7449 12.3721 70.005 12.3721ZM40.8606 9.66154H68.6647V3.11294H40.9557L40.8606 9.66154Z" fill="white"/>
<path d="M54.753 79.3127C54.4101 79.3127 54.0672 79.1804 53.8054 78.9157L39.6782 64.631C35.9558 60.8676 35.9558 54.7434 39.6782 50.979C43.4007 47.2154 49.4564 47.2156 53.1789 50.9788L54.753 52.5704L56.3263 50.979C60.0488 47.2158 66.1045 47.2156 69.827 50.9788C71.6306 52.8022 72.6236 55.2265 72.6236 57.8049C72.6236 60.3834 71.6306 62.8076 69.827 64.631L55.7007 78.9157C55.4389 79.1804 55.096 79.3127 54.753 79.3127ZM46.4286 50.8657C44.6703 50.8657 42.912 51.5422 41.5735 52.8957C38.8964 55.603 38.8964 60.0075 41.5735 62.7141L54.753 76.0407L67.9317 62.7143C69.2284 61.4029 69.943 59.6594 69.943 57.8049C69.943 55.9504 69.2284 54.2069 67.9317 52.8957C65.2546 50.1891 60.8987 50.1887 58.2216 52.8957L55.7007 55.4453C55.1981 55.9529 54.308 55.9542 53.8054 55.4455L51.2836 52.8957C49.9451 51.5424 48.1868 50.8657 46.4286 50.8657Z" fill="white"/>
<path d="M101.751 25.1859C98.8561 25.1859 96.501 22.8046 96.501 19.8776C96.501 16.9507 98.8561 14.5694 101.751 14.5694C104.645 14.5694 107 16.9507 107 19.8776C107 22.8046 104.645 25.1859 101.751 25.1859ZM101.751 17.28C100.334 17.28 99.1816 18.4454 99.1816 19.8776C99.1816 21.3099 100.334 22.4753 101.751 22.4753C103.167 22.4753 104.319 21.3099 104.319 19.8776C104.319 18.4454 103.167 17.28 101.751 17.28Z" fill="white"/>
<path d="M1.78706 28.4656C0.801907 28.4656 0 27.6549 0 26.6585C0 25.6621 0.801907 24.8515 1.78706 24.8515C2.77221 24.8515 3.57411 25.6621 3.57411 26.6585C3.57411 27.6549 2.77221 28.4656 1.78706 28.4656ZM1.78706 25.755C1.29405 25.755 0.893528 26.1602 0.893528 26.6585C0.893528 27.1568 1.29405 27.5621 1.78706 27.5621C2.28007 27.5621 2.68058 27.1568 2.68058 26.6585C2.68058 26.1602 2.28007 25.755 1.78706 25.755Z" fill="white"/>
<path d="M84.8852 3.61412C83.9 3.61412 83.0981 2.80346 83.0981 1.80706C83.0981 0.810662 83.9 0 84.8852 0C85.8703 0 86.6722 0.810662 86.6722 1.80706C86.6722 2.80346 85.8703 3.61412 84.8852 3.61412ZM84.8852 0.903529C84.3922 0.903529 83.9916 1.30875 83.9916 1.80706C83.9916 2.30537 84.3922 2.71059 84.8852 2.71059C85.3782 2.71059 85.7787 2.30537 85.7787 1.80706C85.7787 1.30875 85.3782 0.903529 84.8852 0.903529Z" fill="white"/>
<path d="M15.7153 13.6121C15.3723 13.6121 15.0294 13.4797 14.7676 13.215L5.83237 4.17971C5.30881 3.65051 5.30881 2.79243 5.83237 2.26324C6.35592 1.73382 7.20407 1.73382 7.72762 2.26324L16.6629 11.2985C17.1865 11.8277 17.1865 12.6858 16.6629 13.215C16.4011 13.4797 16.0582 13.6121 15.7153 13.6121Z" fill="white"/>
<path d="M6.77999 13.6121C6.43707 13.6121 6.09414 13.4797 5.83237 13.215C5.30881 12.6858 5.30881 11.8277 5.83237 11.2985L14.7676 2.26324C15.2912 1.73382 16.1394 1.73382 16.6629 2.26324C17.1865 2.79243 17.1865 3.65051 16.6629 4.17971L7.72762 13.215C7.46585 13.4797 7.12292 13.6121 6.77999 13.6121Z" fill="white"/>
</svg>
